<svg width="167" height="53" viewBox="0 0 167 53" fill="none" xmlns="http://www.w3.org/2000/svg">
<g clip-path="url(#clip0_1_106)">
<path d="M87.7018 13.1006C87.7018 14.9796 86.1942 16.4932 84.3226 16.4932C82.4511 16.4932 80.9435 14.9796 80.9435 13.1006C80.9435 11.2216 82.3991 9.70803 84.3226 9.70803C86.2462 9.76022 87.7018 11.2738 87.7018 13.1006ZM73.7694 19.938C73.7694 20.2512 73.7694 20.7731 73.7694 20.7731C73.7694 20.7731 72.1578 18.6853 68.7267 18.6853C63.0601 18.6853 58.6413 23.0174 58.6413 29.0197C58.6413 34.9698 63.0082 39.354 68.7267 39.354C72.2098 39.354 73.7694 37.2141 73.7694 37.2141V38.1014C73.7694 38.5189 74.0813 38.8321 74.4972 38.8321H78.7081V19.2073C78.7081 19.2073 74.8611 19.2073 74.4972 19.2073C74.0813 19.2073 73.7694 19.5726 73.7694 19.938ZM73.7694 32.5167C72.9896 33.6649 71.43 34.6566 69.5585 34.6566C66.2313 34.6566 63.684 32.5689 63.684 29.0197C63.684 25.4705 66.2313 23.3828 69.5585 23.3828C71.378 23.3828 73.0416 24.4266 73.7694 25.5227V32.5167ZM81.8273 19.2073H86.818V38.8321H81.8273V19.2073ZM156.376 18.6853C152.945 18.6853 151.333 20.7731 151.333 20.7731V9.76022H146.343V38.8321C146.343 38.8321 150.19 38.8321 150.554 38.8321C150.969 38.8321 151.281 38.4667 151.281 38.1014V37.2141C151.281 37.2141 152.893 39.354 156.324 39.354C161.991 39.354 166.409 34.9698 166.409 29.0197C166.409 23.0696 161.991 18.6853 156.376 18.6853ZM155.544 34.6044C153.621 34.6044 152.113 33.6127 151.333 32.4645V25.4705C152.113 24.4266 153.777 23.3306 155.544 23.3306C158.871 23.3306 161.419 25.4183 161.419 28.9675C161.419 32.5167 158.871 34.6044 155.544 34.6044ZM143.743 27.1929V38.8843H138.753V27.767C138.753 24.531 137.713 23.2262 134.906 23.2262C133.398 23.2262 131.838 24.0091 130.851 25.1574V38.8321H125.86V19.2073H129.811C130.227 19.2073 130.539 19.5726 130.539 19.938V20.7731C131.994 19.2595 133.918 18.6853 135.841 18.6853C138.025 18.6853 139.844 19.3117 141.3 20.5643C143.067 22.0257 143.743 23.9047 143.743 27.1929ZM113.747 18.6853C110.316 18.6853 108.704 20.7731 108.704 20.7731V9.76022H103.714V38.8321C103.714 38.8321 107.561 38.8321 107.925 38.8321C108.34 38.8321 108.652 38.4667 108.652 38.1014V37.2141C108.652 37.2141 110.264 39.354 113.695 39.354C119.362 39.354 123.78 34.9698 123.78 29.0197C123.832 23.0696 119.414 18.6853 113.747 18.6853ZM112.915 34.6044C110.992 34.6044 109.484 33.6127 108.704 32.4645V25.4705C109.484 24.4266 111.148 23.3306 112.915 23.3306C116.242 23.3306 118.79 25.4183 118.79 28.9675C118.79 32.5167 116.242 34.6044 112.915 34.6044ZM99.3988 18.6853C100.906 18.6853 101.686 18.9463 101.686 18.9463V23.5915C101.686 23.5915 97.5272 22.1823 94.9279 25.1574V38.8843H89.9372V19.2073C89.9372 19.2073 93.7842 19.2073 94.1481 19.2073C94.564 19.2073 94.8759 19.5726 94.8759 19.938V20.7731C95.8117 19.677 97.8392 18.6853 99.3988 18.6853ZM47.5681 37.0575C47.3082 36.4312 47.0483 35.7527 46.7883 35.1785C46.3725 34.2391 45.9566 33.3518 45.5927 32.5167L45.5407 32.4645C41.9536 24.6354 38.1066 16.702 34.0516 8.87293L33.8957 8.55976C33.4798 7.77686 33.0639 6.94176 32.648 6.10666C32.1281 5.16718 31.6083 4.1755 30.7765 3.23601C29.1129 1.14826 26.7215 0 24.1742 0C21.5749 0 19.2355 1.14826 17.5199 3.13162C16.7401 4.07111 16.1683 5.06279 15.6484 6.00227C15.2325 6.83737 14.8166 7.67247 14.4007 8.45538L14.2447 8.76854C10.2418 16.5976 6.34279 24.531 2.75571 32.3601L2.70373 32.4645C2.33982 33.2996 1.92393 34.1869 1.50804 35.1264C1.2481 35.7005 0.988171 36.3268 0.728238 37.0053C0.0524125 38.9365 -0.155534 40.7633 0.104399 42.6422C0.676251 46.5568 3.27558 49.845 6.86265 51.3064C8.2143 51.8805 9.61794 52.1415 11.0736 52.1415C11.4895 52.1415 12.0093 52.0893 12.4252 52.0371C14.1408 51.8283 15.9083 51.2542 17.6239 50.2625C19.7553 49.0621 21.7828 47.3397 24.0702 44.8344C26.3576 47.3397 28.4371 49.0621 30.5165 50.2625C32.2321 51.2542 33.9996 51.8283 35.7152 52.0371C36.1311 52.0893 36.651 52.1415 37.0669 52.1415C38.5225 52.1415 39.9781 51.8805 41.2778 51.3064C44.9168 49.845 47.4642 46.5046 48.036 42.6422C48.4519 40.8155 48.244 38.9887 47.5681 37.0575ZM24.1222 39.7716C21.3149 36.2224 19.4954 32.882 18.8716 30.0636C18.6116 28.8631 18.5596 27.8192 18.7156 26.8797C18.8196 26.0447 19.1315 25.3139 19.5474 24.6876C20.5351 23.2784 22.1987 22.3911 24.1222 22.3911C26.0457 22.3911 27.7613 23.2262 28.697 24.6876C29.1129 25.3139 29.4248 26.0447 29.5288 26.8797C29.6848 27.8192 29.6328 28.9153 29.3728 30.0636C28.749 32.8298 26.9295 36.1702 24.1222 39.7716ZM44.8648 42.2247C44.5009 44.9388 42.6814 47.2875 40.1341 48.3314C38.8864 48.8533 37.5347 49.0099 36.1831 48.8533C34.8834 48.6967 33.5838 48.2792 32.2321 47.4963C30.3606 46.4524 28.4891 44.8344 26.3056 42.4335C29.7367 38.2058 31.8162 34.3434 32.596 30.8987C32.9599 29.2807 33.0119 27.8192 32.8559 26.4622C32.648 25.1574 32.1801 23.9569 31.4523 22.913C29.8407 20.5643 27.1374 19.2073 24.1222 19.2073C21.107 19.2073 18.4037 20.6165 16.7921 22.913C16.0643 23.9569 15.5964 25.1574 15.3885 26.4622C15.1805 27.8192 15.2325 29.3329 15.6484 30.8987C16.4282 34.3434 18.5596 38.258 21.9388 42.4857C19.8073 44.8866 17.8838 46.5046 16.0123 47.5485C14.6606 48.3314 13.361 48.7489 12.0613 48.9055C10.6577 49.0621 9.30602 48.8533 8.11033 48.3835C5.56299 47.3397 3.74346 44.991 3.37955 42.2769C3.22359 40.972 3.32757 39.6672 3.84743 38.2058C4.00339 37.6838 4.26332 37.1619 4.52326 36.5356C4.88716 35.7005 5.30306 34.8132 5.71895 33.9259L5.77094 33.8215C9.35801 26.0447 13.205 18.1112 17.208 10.3865L17.3639 10.0734C17.7798 9.29048 18.1957 8.45538 18.6116 7.67247C19.0275 6.83737 19.4954 6.05447 20.0672 5.37595C21.159 4.1233 22.6146 3.44478 24.2262 3.44478C25.8378 3.44478 27.2934 4.1233 28.3851 5.37595C28.9569 6.05447 29.4248 6.83737 29.8407 7.67247C30.2566 8.45538 30.6725 9.29048 31.0884 10.0734L31.2444 10.3865C35.1953 18.1634 39.0423 26.0968 42.6294 33.8737V33.9259C43.0453 34.761 43.4092 35.7005 43.8251 36.5356C44.085 37.1619 44.345 37.6838 44.5009 38.2058C44.9168 39.5628 45.0728 40.8677 44.8648 42.2247Z" fill="#FF5A5F"/>
</g>
<defs>
<clipPath id="clip0_1_106">
<rect width="166.409" height="52.1415" fill="white"/>
</clipPath>
</defs>
</svg>
