<svg width="142" height="43" viewBox="0 0 142 43" fill="none" xmlns="http://www.w3.org/2000/svg">
<g clip-path="url(#clip0_1_93)">
<path fill-rule="evenodd" clip-rule="evenodd" d="M87.8123 33.3187C79.5868 39.3744 67.6644 42.6053 57.3995 42.6053C43.0064 42.6053 30.0489 37.2881 20.2461 28.4445C19.4759 27.7491 20.166 26.8014 21.0902 27.3429C31.6694 33.491 44.7501 37.1896 58.2621 37.1896C67.3749 37.1896 77.3995 35.3065 86.617 31.3985C88.0095 30.8077 89.174 32.3094 87.8123 33.3187Z" fill="#FF9900"/>
<path fill-rule="evenodd" clip-rule="evenodd" d="M91.2322 29.4109C90.1847 28.0693 84.2821 28.777 81.6327 29.0909C80.8256 29.1894 80.7023 28.4878 81.4294 27.9832C86.1305 24.6784 93.8446 25.6323 94.7442 26.74C95.6437 27.8539 94.51 35.5774 90.0923 39.2638C89.4146 39.83 88.7676 39.5284 89.0695 38.7776C90.0615 36.3036 92.2858 30.7587 91.2322 29.4109Z" fill="#FF9900"/>
<path fill-rule="evenodd" clip-rule="evenodd" d="M81.8175 4.65277V1.44028C81.8175 0.954102 82.1872 0.62793 82.6308 0.62793H97.0301C97.4922 0.62793 97.8619 0.960256 97.8619 1.44028V4.19121C97.8557 4.65277 97.4675 5.25588 96.7775 6.20978L89.316 16.8504C92.0886 16.7827 95.0153 17.195 97.5292 18.6105C98.096 18.9305 98.25 19.3982 98.2932 19.8598V23.2877C98.2932 23.7554 97.7756 24.3031 97.2334 24.02C92.8033 21.6999 86.9192 21.4476 82.0208 24.0446C81.5218 24.3154 80.998 23.7738 80.998 23.3061V20.0506C80.998 19.5275 81.0042 18.6351 81.5279 17.8412L90.1724 5.45897H82.6493C82.1872 5.45897 81.8175 5.1328 81.8175 4.65277Z" fill="white"/>
<path fill-rule="evenodd" clip-rule="evenodd" d="M29.2912 24.6972H24.9104C24.4915 24.6664 24.1587 24.3526 24.1279 23.9525V1.4959C24.1279 1.04664 24.5038 0.689694 24.972 0.689694H29.0571C29.4822 0.708144 29.8211 1.03433 29.8519 1.4405V4.37606H29.932C30.9979 1.53897 33.0004 0.21582 35.6991 0.21582C38.4409 0.21582 40.1538 1.53897 41.3861 4.37606C42.4459 1.53897 44.855 0.21582 47.4366 0.21582C49.2727 0.21582 51.2814 0.972785 52.5075 2.67134C53.8938 4.56068 53.6104 7.30544 53.6104 9.71174L53.6042 23.8848C53.6042 24.3341 53.2284 24.6972 52.7601 24.6972H48.3855C47.948 24.6664 47.5968 24.3156 47.5968 23.8848V11.9826C47.5968 11.0349 47.6831 8.67168 47.4736 7.77316C47.147 6.26539 46.1674 5.84075 44.8981 5.84075C43.8383 5.84075 42.7293 6.54848 42.2795 7.68085C41.8297 8.81322 41.8729 10.7087 41.8729 11.9826V23.8848C41.8729 24.3341 41.497 24.6972 41.0287 24.6972H36.6541C36.2105 24.6664 35.8655 24.3156 35.8655 23.8848L35.8593 11.9826C35.8593 9.47788 36.2721 5.79152 33.1606 5.79152C30.0121 5.79152 30.1353 9.38556 30.1353 11.9826V23.8848C30.1353 24.3341 29.7595 24.6972 29.2912 24.6972" fill="white"/>
<path fill-rule="evenodd" clip-rule="evenodd" d="M110.259 0.21582C116.759 0.21582 120.277 5.79152 120.277 12.8811C120.277 19.7308 116.389 25.1649 110.259 25.1649C103.875 25.1649 100.4 19.5892 100.4 12.6411C100.4 5.64997 103.919 0.21582 110.259 0.21582ZM110.296 4.80069C107.067 4.80069 106.864 9.19478 106.864 11.9334C106.864 14.6782 106.821 20.537 110.259 20.537C113.654 20.537 113.814 15.8105 113.814 12.9304C113.814 11.0349 113.734 8.77014 113.161 6.97312C112.668 5.40996 111.688 4.80069 110.296 4.80069Z" fill="white"/>
<path fill-rule="evenodd" clip-rule="evenodd" d="M128.706 24.6972H124.344C123.906 24.6664 123.555 24.3156 123.555 23.8848L123.549 1.42204C123.586 1.00971 123.949 0.689694 124.393 0.689694H128.453C128.835 0.708144 129.15 0.966633 129.236 1.31742V4.75146H129.316C130.542 1.68052 132.261 0.21582 135.286 0.21582C137.252 0.21582 139.168 0.923553 140.4 2.86212C141.546 4.65914 141.546 7.68085 141.546 9.85328V23.9895C141.497 24.3833 141.134 24.6972 140.702 24.6972H136.309C135.909 24.6664 135.576 24.371 135.533 23.9895V11.7919C135.533 9.33633 135.816 5.74228 132.791 5.74228C131.725 5.74228 130.745 6.45617 130.259 7.5393C129.642 8.91169 129.562 10.2779 129.562 11.7919V23.8848C129.556 24.3341 129.174 24.6972 128.706 24.6972" fill="white"/>
<path fill-rule="evenodd" clip-rule="evenodd" d="M70.3389 13.97C70.3389 15.6747 70.382 17.0963 69.5194 18.6103C68.8231 19.8411 67.7141 20.5981 66.488 20.5981C64.8059 20.5981 63.8201 19.318 63.8201 17.4287C63.8201 13.6992 67.1657 13.0223 70.3389 13.0223V13.97ZM74.7566 24.6352C74.467 24.8937 74.048 24.9122 73.7215 24.7399C72.2674 23.5336 72.0024 22.9736 71.2076 21.8228C68.8047 24.2721 67.0979 25.0045 63.9864 25.0045C60.2957 25.0045 57.4307 22.7336 57.4307 18.1856C57.4307 14.6347 59.353 12.2161 62.101 11.0345C64.4793 9.98825 67.8003 9.80363 70.3389 9.51438V8.9482C70.3389 7.90814 70.419 6.6773 69.8028 5.77879C69.2729 4.97259 68.2501 4.64026 67.3444 4.64026C65.6747 4.64026 64.1898 5.49569 63.8262 7.2681C63.7523 7.66197 63.4627 8.04969 63.0622 8.06815L58.817 7.61273C58.4596 7.53273 58.0591 7.24348 58.1639 6.69576C59.1374 1.55086 63.7954 0 67.9605 0C70.0924 0 72.8774 0.566187 74.5594 2.17858C76.6913 4.16639 76.488 6.81884 76.488 9.70516V16.524C76.488 18.5734 77.3382 19.4719 78.1392 20.5796C78.4165 20.9735 78.4781 21.4474 78.1207 21.7428C77.2273 22.4874 75.6377 23.8721 74.7627 24.6475L74.7566 24.6352" fill="white"/>
<path fill-rule="evenodd" clip-rule="evenodd" d="M12.9082 13.97C12.9082 15.6747 12.9513 17.0963 12.0887 18.6103C11.3925 19.8411 10.2896 20.5981 9.0573 20.5981C7.37523 20.5981 6.39556 19.318 6.39556 17.4287C6.39556 13.6992 9.74122 13.0223 12.9082 13.0223V13.97ZM17.3259 24.6352C17.0364 24.8937 16.6174 24.9122 16.2908 24.7399C14.8367 23.5336 14.5779 22.9736 13.777 21.8228C11.374 24.2721 9.67345 25.0045 6.55576 25.0045C2.87122 25.0045 0 22.7336 0 18.1856C0 14.6347 1.92853 12.2161 4.67036 11.0345C7.04867 9.98825 10.3697 9.80363 12.9082 9.51438V8.9482C12.9082 7.90814 12.9883 6.6773 12.3783 5.77879C11.8423 4.97259 10.8195 4.64026 9.9199 4.64026C8.25016 4.64026 6.75909 5.49569 6.39556 7.2681C6.32162 7.66197 6.03204 8.04969 5.63771 8.06815L1.38632 7.61273C1.02896 7.53273 0.634626 7.24348 0.733209 6.69576C1.71288 1.55086 6.36475 0 10.5299 0C12.6617 0 15.4467 0.566187 17.1288 2.17858C19.2606 4.16639 19.0573 6.81884 19.0573 9.70516V16.524C19.0573 18.5734 19.9076 19.4719 20.7086 20.5796C20.992 20.9735 21.0536 21.4474 20.6962 21.7428C19.8028 22.4874 18.2132 23.8721 17.3383 24.6475L17.3259 24.6352" fill="white"/>
</g>
<defs>
<clipPath id="clip0_1_93">
<rect width="141.547" height="42.6055" fill="white"/>
</clipPath>
</defs>
</svg>
