<svg width="28" height="28" viewBox="0 0 28 28" fill="none" xmlns="http://www.w3.org/2000/svg">
<g clip-path="url(#clip0_320_10)">
<path d="M6.125 0C6.35706 0 6.57962 0.0921872 6.74372 0.256282C6.90781 0.420376 7 0.642936 7 0.875V1.75H21V0.875C21 0.642936 21.0922 0.420376 21.2563 0.256282C21.4204 0.0921872 21.6429 0 21.875 0C22.1071 0 22.3296 0.0921872 22.4937 0.256282C22.6578 0.420376 22.75 0.642936 22.75 0.875V1.75H24.5C25.4283 1.75 26.3185 2.11875 26.9749 2.77513C27.6313 3.4315 28 4.32174 28 5.25V24.5C28 25.4283 27.6313 26.3185 26.9749 26.9749C26.3185 27.6313 25.4283 28 24.5 28H3.5C2.57174 28 1.6815 27.6313 1.02513 26.9749C0.368749 26.3185 0 25.4283 0 24.5V5.25C0 4.32174 0.368749 3.4315 1.02513 2.77513C1.6815 2.11875 2.57174 1.75 3.5 1.75H5.25V0.875C5.25 0.642936 5.34219 0.420376 5.50628 0.256282C5.67038 0.0921872 5.89294 0 6.125 0ZM3.5 3.5C3.03587 3.5 2.59075 3.68437 2.26256 4.01256C1.93437 4.34075 1.75 4.78587 1.75 5.25V24.5C1.75 24.9641 1.93437 25.4092 2.26256 25.7374C2.59075 26.0656 3.03587 26.25 3.5 26.25H24.5C24.9641 26.25 25.4092 26.0656 25.7374 25.7374C26.0656 25.4092 26.25 24.9641 26.25 24.5V5.25C26.25 4.78587 26.0656 4.34075 25.7374 4.01256C25.4092 3.68437 24.9641 3.5 24.5 3.5H3.5Z" fill="white"/>
<path d="M4.375 7C4.375 6.76794 4.46719 6.54538 4.63128 6.38128C4.79538 6.21719 5.01794 6.125 5.25 6.125H22.75C22.9821 6.125 23.2046 6.21719 23.3687 6.38128C23.5328 6.54538 23.625 6.76794 23.625 7V8.75C23.625 8.98206 23.5328 9.20462 23.3687 9.36872C23.2046 9.53281 22.9821 9.625 22.75 9.625H5.25C5.01794 9.625 4.79538 9.53281 4.63128 9.36872C4.46719 9.20462 4.375 8.98206 4.375 8.75V7ZM19.25 13.125C19.25 12.8929 19.3422 12.6704 19.5063 12.5063C19.6704 12.3422 19.8929 12.25 20.125 12.25H21.875C22.1071 12.25 22.3296 12.3422 22.4937 12.5063C22.6578 12.6704 22.75 12.8929 22.75 13.125V14.875C22.75 15.1071 22.6578 15.3296 22.4937 15.4937C22.3296 15.6578 22.1071 15.75 21.875 15.75H20.125C19.8929 15.75 19.6704 15.6578 19.5063 15.4937C19.3422 15.3296 19.25 15.1071 19.25 14.875V13.125ZM14 13.125C14 12.8929 14.0922 12.6704 14.2563 12.5063C14.4204 12.3422 14.6429 12.25 14.875 12.25H16.625C16.8571 12.25 17.0796 12.3422 17.2437 12.5063C17.4078 12.6704 17.5 12.8929 17.5 13.125V14.875C17.5 15.1071 17.4078 15.3296 17.2437 15.4937C17.0796 15.6578 16.8571 15.75 16.625 15.75H14.875C14.6429 15.75 14.4204 15.6578 14.2563 15.4937C14.0922 15.3296 14 15.1071 14 14.875V13.125ZM5.25 18.375C5.25 18.1429 5.34219 17.9204 5.50628 17.7563C5.67038 17.5922 5.89294 17.5 6.125 17.5H7.875C8.10706 17.5 8.32962 17.5922 8.49372 17.7563C8.65781 17.9204 8.75 18.1429 8.75 18.375V20.125C8.75 20.3571 8.65781 20.5796 8.49372 20.7437C8.32962 20.9078 8.10706 21 7.875 21H6.125C5.89294 21 5.67038 20.9078 5.50628 20.7437C5.34219 20.5796 5.25 20.3571 5.25 20.125V18.375ZM10.5 18.375C10.5 18.1429 10.5922 17.9204 10.7563 17.7563C10.9204 17.5922 11.1429 17.5 11.375 17.5H13.125C13.3571 17.5 13.5796 17.5922 13.7437 17.7563C13.9078 17.9204 14 18.1429 14 18.375V20.125C14 20.3571 13.9078 20.5796 13.7437 20.7437C13.5796 20.9078 13.3571 21 13.125 21H11.375C11.1429 21 10.9204 20.9078 10.7563 20.7437C10.5922 20.5796 10.5 20.3571 10.5 20.125V18.375Z" fill="white"/>
</g>
<defs>
<clipPath id="clip0_320_10">
<rect width="28" height="28" fill="white"/>
</clipPath>
</defs>
</svg>
