<svg width="28" height="28" viewBox="0 0 28 28" fill="none" xmlns="http://www.w3.org/2000/svg">
<path d="M1.75 7C1.75 6.07174 2.11875 5.1815 2.77513 4.52513C3.4315 3.86875 4.32174 3.5 5.25 3.5H22.75C23.6783 3.5 24.5685 3.86875 25.2249 4.52513C25.8813 5.1815 26.25 6.07174 26.25 7V17.5C26.25 18.4283 25.8813 19.3185 25.2249 19.9749C24.5685 20.6313 23.6783 21 22.75 21H12.25V20.3805C12.5581 20.0316 12.8307 19.6529 13.0638 19.25H22.75C23.2141 19.25 23.6592 19.0656 23.9874 18.7374C24.3156 18.4092 24.5 17.9641 24.5 17.5V7C24.5 6.53587 24.3156 6.09075 23.9874 5.76256C23.6592 5.43437 23.2141 5.25 22.75 5.25H5.25C4.78587 5.25 4.34075 5.43437 4.01256 5.76256C3.68437 6.09075 3.5 6.53587 3.5 7V9.68625C2.84301 10.067 2.25202 10.5516 1.75 11.1213V7ZM11.6305 10.5C10.5201 9.51791 9.12547 8.91532 7.64925 8.77975C7.72288 8.76004 7.79878 8.75004 7.875 8.75H20.125C20.3571 8.75 20.5796 8.84219 20.7437 9.00628C20.9078 9.17038 21 9.39294 21 9.625C21 9.85706 20.9078 10.0796 20.7437 10.2437C20.5796 10.4078 20.3571 10.5 20.125 10.5H11.6305ZM14.875 14C14.6429 14 14.4204 14.0922 14.2563 14.2563C14.0922 14.4204 14 14.6429 14 14.875C14 15.1071 14.0922 15.3296 14.2563 15.4937C14.4204 15.6578 14.6429 15.75 14.875 15.75H20.125C20.3571 15.75 20.5796 15.6578 20.7437 15.4937C20.9078 15.3296 21 15.1071 21 14.875C21 14.6429 20.9078 14.4204 20.7437 14.2563C20.5796 14.0922 20.3571 14 20.125 14H14.875ZM12.25 15.75C12.25 16.4394 12.1142 17.1221 11.8504 17.7591C11.5865 18.396 11.1998 18.9748 10.7123 19.4623C10.2248 19.9498 9.64605 20.3365 9.00909 20.6004C8.37213 20.8642 7.68944 21 7 21C6.31056 21 5.62787 20.8642 4.99091 20.6004C4.35395 20.3365 3.7752 19.9498 3.28769 19.4623C2.80018 18.9748 2.41347 18.396 2.14963 17.7591C1.8858 17.1221 1.75 16.4394 1.75 15.75C1.75 14.3576 2.30312 13.0223 3.28769 12.0377C4.27226 11.0531 5.60761 10.5 7 10.5C8.39239 10.5 9.72774 11.0531 10.7123 12.0377C11.6969 13.0223 12.25 14.3576 12.25 15.75ZM3.5 21.7752V25.375C3.49897 25.5336 3.54152 25.6894 3.62298 25.8255C3.70445 25.9616 3.82172 26.0727 3.962 26.1467C4.10176 26.2211 4.25907 26.2561 4.41716 26.2481C4.57526 26.2401 4.72822 26.1893 4.85975 26.1012L7 24.675L9.14025 26.103C9.23874 26.1691 9.34968 26.2143 9.46627 26.236C9.58287 26.2577 9.70266 26.2554 9.81832 26.2292C9.93398 26.203 10.0431 26.1534 10.1389 26.0836C10.2348 26.0137 10.3154 25.9251 10.3757 25.823C10.4567 25.6869 10.4996 25.5316 10.5 25.3732V21.7752C9.44064 22.4051 8.23244 22.741 7 22.7482C5.76756 22.741 4.55936 22.4051 3.5 21.7752Z" fill="white"/>
</svg>
