<svg width="30" height="30" viewBox="0 0 30 30" fill="none" xmlns="http://www.w3.org/2000/svg">
<path d="M15.0001 15.9375H14.8688C12.7313 15.6562 10.1626 14.6625 10.1626 11.475C10.1626 9.5625 11.4376 7.5 14.9813 7.5C18.5251 7.5 19.6876 10.05 19.8001 11.4C19.8376 11.925 19.4626 12.375 18.9376 12.4125C18.6926 12.4295 18.4505 12.3512 18.2619 12.194C18.0732 12.0368 17.9525 11.8128 17.9251 11.5687C17.8876 11.2125 17.5688 9.39375 14.9626 9.39375C13.0126 9.39375 12.0188 10.1063 12.0188 11.4937C12.0188 12.2062 12.0188 13.7062 15.0938 14.1C15.3275 14.1363 15.539 14.2589 15.6864 14.4437C15.8339 14.6285 15.9066 14.862 15.89 15.0978C15.8735 15.3337 15.769 15.5547 15.5973 15.7172C15.4255 15.8796 15.199 15.9716 14.9626 15.975L15.0001 15.9375Z" fill="white"/>
<path d="M15 22.5C11.4375 22.5 10.2938 19.95 10.1813 18.6C10.1438 18.075 10.5188 17.625 11.0438 17.5875C11.55 17.55 12 17.925 12.0563 18.4312C12.0938 18.7875 12.4125 20.6062 15.0188 20.6062C16.9688 20.6062 17.9625 19.8937 17.9625 18.5062C17.9625 17.7937 17.9625 16.2937 14.8875 15.9C14.6422 15.8659 14.4201 15.7367 14.2692 15.5402C14.1184 15.3438 14.0509 15.0958 14.0813 14.85C14.1563 14.3437 14.625 13.9687 15.1313 14.0437C17.2688 14.325 19.8375 15.3187 19.8375 18.5062C19.8375 20.4187 18.5625 22.4812 15.0188 22.4812L15 22.5Z" fill="white"/>
<path d="M15 28.125C7.7625 28.125 1.875 22.2375 1.875 15C1.875 7.7625 7.7625 1.875 15 1.875C22.2375 1.875 28.125 7.7625 28.125 15C28.125 22.2375 22.2375 28.125 15 28.125ZM15 3.75C8.79375 3.75 3.75 8.79375 3.75 15C3.75 21.2062 8.79375 26.25 15 26.25C21.2062 26.25 26.25 21.2062 26.25 15C26.25 8.79375 21.2062 3.75 15 3.75Z" fill="white"/>
<path d="M15 24.375C14.475 24.375 14.0625 23.9625 14.0625 23.4375V6.5625C14.0625 6.0375 14.475 5.625 15 5.625C15.525 5.625 15.9375 6.0375 15.9375 6.5625V23.4375C15.9375 23.9625 15.525 24.375 15 24.375Z" fill="white"/>
</svg>
