<svg width="104" height="104" viewBox="0 0 104 104" fill="none" xmlns="http://www.w3.org/2000/svg">
<g filter="url(#filter0_f_17_2166)">
<path fill-rule="evenodd" clip-rule="evenodd" d="M98.1893 47.7224L56.2743 5.80973C53.8622 3.39545 49.9469 3.39545 47.5317 5.80973L38.828 14.5135L49.869 25.5547C52.4349 24.6878 55.3768 25.2693 57.4224 27.3149C59.4774 29.3731 60.0547 32.3404 59.1667 34.9148L69.8074 45.5557C72.3818 44.6688 75.3521 45.2429 77.4082 47.3021C80.2817 50.1746 80.2817 54.8304 77.4082 57.705C74.5337 60.5796 69.878 60.5796 67.0024 57.705C64.841 55.5414 64.3069 52.3666 65.4014 49.7038L55.478 39.7802L55.4769 65.8948C56.1774 66.2424 56.8389 66.7048 57.4224 67.2863C60.2959 70.1587 60.2959 74.8145 57.4224 77.6912C54.5479 80.5648 49.8901 80.5648 47.0197 77.6912C44.1463 74.8145 44.1463 70.1587 47.0197 67.2863C47.7297 66.5774 48.5513 66.0412 49.4276 65.681L49.4276 39.323C48.5513 38.9649 47.7307 38.4319 47.0197 37.7177C44.8425 35.5436 44.319 32.3488 45.4345 29.6754L34.5515 18.7901L5.81146 47.5286C3.39618 49.945 3.39618 53.8603 5.81146 56.2746L47.7265 98.1883C50.1397 100.603 54.0539 100.603 56.4702 98.1883L98.1893 56.4694C100.604 54.0541 100.604 50.1367 98.1893 47.7224Z" fill="white"/>
</g>
<defs>
<filter id="filter0_f_17_2166" x="0" y="-0.000976562" width="104" height="104" filterUnits="userSpaceOnUse" color-interpolation-filters="sRGB">
<feFlood flood-opacity="0" result="BackgroundImageFix"/>
<feBlend mode="normal" in="SourceGraphic" in2="BackgroundImageFix" result="shape"/>
<feGaussianBlur stdDeviation="2" result="effect1_foregroundBlur_17_2166"/>
</filter>
</defs>
</svg>
