<svg width="176" height="176" viewBox="0 0 176 176" fill="none" xmlns="http://www.w3.org/2000/svg">
<path fill-rule="evenodd" clip-rule="evenodd" d="M172.68 80.1596L95.8362 3.31963C91.4139 -1.10654 84.236 -1.10654 79.808 3.31963L63.8513 19.2766L84.0931 39.5188C88.7973 37.9295 94.1909 38.9955 97.9411 42.7457C101.709 46.5192 102.767 51.9592 101.139 56.6789L120.647 76.1872C125.367 74.5612 130.812 75.6137 134.582 79.3891C139.85 84.6553 139.85 93.1909 134.582 98.461C129.312 103.731 120.776 103.731 115.504 98.461C111.542 94.4944 110.563 88.674 112.569 83.7921L94.3763 65.5988L94.3743 113.476C95.6585 114.113 96.8712 114.961 97.9411 116.027C103.209 121.293 103.209 129.828 97.9411 135.102C92.6711 140.371 84.1318 140.371 78.8695 135.102C73.6015 129.828 73.6015 121.293 78.8695 116.027C80.1711 114.727 81.6773 113.744 83.284 113.084L83.284 64.7607C81.6773 64.1041 80.173 63.127 78.8695 61.8176C74.8779 57.8318 73.9182 51.9746 75.9632 47.0734L56.0111 27.117L3.32101 79.8043C-1.107 84.2343 -1.107 91.4123 3.32101 95.8385L80.1653 172.68C84.5894 177.107 91.7654 177.107 96.1953 172.68L172.68 96.1958C177.107 91.7676 177.107 84.5858 172.68 80.1596Z" fill="white"/>
</svg>
