<svg width="78" height="105" viewBox="0 0 78 105" fill="none" xmlns="http://www.w3.org/2000/svg">
<g filter="url(#filter0_f_17_2206)">
<path fill-rule="evenodd" clip-rule="evenodd" d="M56.2559 80.3777L58.3775 56.8522L58.5845 54.5974L27.6616 54.5974L26.8861 45.9986L59.3293 45.9986L59.5268 44.1112L60.1164 37.6015L17.6127 37.6015L19.9014 62.9944L49.3093 62.9944L48.3243 73.8847L38.8883 76.4051L29.4025 73.8901L28.7984 67.193L20.2805 67.193L21.4693 80.3777L38.8508 85.1527L56.2559 80.3777Z" fill="white"/>
<path fill-rule="evenodd" clip-rule="evenodd" d="M11.3063 5L15.6184 5L15.6184 9.21606L19.563 9.21606L19.563 5L23.8753 5L23.8753 17.7673L19.5632 17.7673L19.5632 13.492L15.6186 13.492L15.6186 17.7673L11.3065 17.7673L11.3063 5Z" fill="white"/>
<path fill-rule="evenodd" clip-rule="evenodd" d="M29.5458 9.23381L25.7496 9.23381L25.7496 5L37.6562 5L37.6562 9.23381L33.8583 9.23381L33.8583 17.7673L29.546 17.7673L29.5458 9.23381Z" fill="white"/>
<path fill-rule="evenodd" clip-rule="evenodd" d="M39.5459 5L44.0423 5L46.8081 9.48604L49.5712 5L54.0693 5L54.0693 17.7673L49.7749 17.7673L49.7749 11.4391L46.8081 15.9786L46.734 15.9786L43.7652 11.4391L43.7652 17.7673L39.5459 17.7673L39.5459 5Z" fill="white"/>
<path fill-rule="evenodd" clip-rule="evenodd" d="M56.2153 5L60.5287 5L60.5287 13.5471L66.5928 13.5471L66.5928 17.7673L56.2153 17.7673L56.2153 5Z" fill="white"/>
<path fill-rule="evenodd" clip-rule="evenodd" d="M11.1684 92.0722L5 23.6061L72.7797 23.6061L66.6048 92.0615L38.8484 99.6764L11.1684 92.0722Z" stroke="white"/>
<path fill-rule="evenodd" clip-rule="evenodd" d="M56.2559 80.3777L58.3775 56.8522L58.5845 54.5974L27.6616 54.5974L26.8861 45.9986L59.3293 45.9986L59.5268 44.1112L60.1164 37.6015L17.6127 37.6015L19.9014 62.9944L49.3093 62.9944L48.3243 73.8847L38.8883 76.4051L29.4025 73.8901L28.7984 67.193L20.2805 67.193L21.4693 80.3777L38.8508 85.1527L56.2559 80.3777Z" stroke="white"/>
<path fill-rule="evenodd" clip-rule="evenodd" d="M11.3063 5L15.6184 5L15.6184 9.21606L19.563 9.21606L19.563 5L23.8753 5L23.8753 17.7673L19.5632 17.7673L19.5632 13.492L15.6186 13.492L15.6186 17.7673L11.3065 17.7673L11.3063 5Z" stroke="white"/>
<path fill-rule="evenodd" clip-rule="evenodd" d="M29.5458 9.23381L25.7496 9.23381L25.7496 5L37.6562 5L37.6562 9.23381L33.8583 9.23381L33.8583 17.7673L29.546 17.7673L29.5458 9.23381Z" stroke="white"/>
<path fill-rule="evenodd" clip-rule="evenodd" d="M39.5459 5L44.0423 5L46.8081 9.48604L49.5712 5L54.0693 5L54.0693 17.7673L49.7749 17.7673L49.7749 11.4391L46.8081 15.9786L46.734 15.9786L43.7652 11.4391L43.7652 17.7673L39.5459 17.7673L39.5459 5Z" stroke="white"/>
<path fill-rule="evenodd" clip-rule="evenodd" d="M56.2153 5L60.5287 5L60.5287 13.5471L66.5928 13.5471L66.5928 17.7673L56.2153 17.7673L56.2153 5Z" stroke="white"/>
</g>
<defs>
<filter id="filter0_f_17_2206" x="0.453125" y="0.5" width="76.874" height="103.695" filterUnits="userSpaceOnUse" color-interpolation-filters="sRGB">
<feFlood flood-opacity="0" result="BackgroundImageFix"/>
<feBlend mode="normal" in="SourceGraphic" in2="BackgroundImageFix" result="shape"/>
<feGaussianBlur stdDeviation="2" result="effect1_foregroundBlur_17_2206"/>
</filter>
</defs>
</svg>
