<svg width="154" height="213" viewBox="0 0 154 213" fill="none" xmlns="http://www.w3.org/2000/svg">
<path fill-rule="evenodd" clip-rule="evenodd" d="M115.432 168.194L120.127 116.012L120.585 111.011L52.1512 111.011L50.4351 91.9383L122.234 91.9383L122.671 87.7518L123.975 73.3127L29.9126 73.3127L34.9775 129.636L100.059 129.636L97.879 153.792L76.9967 159.382L56.0041 153.804L54.6671 138.949L35.8165 138.949L38.4474 168.194L76.9136 178.785L115.432 168.194Z" fill="white"/>
<path fill-rule="evenodd" clip-rule="evenodd" d="M15.9561 1L25.4991 1L25.4991 10.3516L34.2286 10.3516L34.2286 1L43.7719 1L43.7719 29.3188L34.229 29.3188L34.229 19.836L25.4995 19.836L25.4995 29.3188L15.9565 29.3188L15.9561 1Z" fill="white"/>
<path fill-rule="evenodd" clip-rule="evenodd" d="M56.3212 10.3909L47.92 10.3909L47.92 1L74.2699 1L74.2699 10.3909L65.865 10.3909L65.865 29.3188L56.3216 29.3188L56.3212 10.3909Z" fill="white"/>
<path fill-rule="evenodd" clip-rule="evenodd" d="M78.4519 1L88.4026 1L94.5236 10.9504L100.638 1L110.593 1L110.593 29.3188L101.089 29.3188L101.089 15.2825L94.5236 25.3514L94.3594 25.3514L87.7893 15.2825L87.7893 29.3188L78.4519 29.3188L78.4519 1Z" fill="white"/>
<path fill-rule="evenodd" clip-rule="evenodd" d="M115.342 1L124.888 1L124.888 19.9582L138.308 19.9582L138.308 29.3188L115.342 29.3188L115.342 1Z" fill="white"/>
<path fill-rule="evenodd" clip-rule="evenodd" d="M15.6509 194.133L2 42.2699L152 42.2699L138.335 194.109L76.9082 211L15.6509 194.133Z" stroke="white" stroke-width="2"/>
<path fill-rule="evenodd" clip-rule="evenodd" d="M115.432 168.194L120.127 116.012L120.585 111.011L52.1512 111.011L50.4351 91.9383L122.234 91.9383L122.671 87.7518L123.975 73.3127L29.9126 73.3127L34.9775 129.636L100.059 129.636L97.879 153.792L76.9967 159.382L56.0041 153.804L54.6671 138.949L35.8165 138.949L38.4474 168.194L76.9136 178.785L115.432 168.194Z" stroke="white" stroke-width="2"/>
<path fill-rule="evenodd" clip-rule="evenodd" d="M15.9561 1L25.4991 1L25.4991 10.3516L34.2286 10.3516L34.2286 1L43.7719 1L43.7719 29.3188L34.229 29.3188L34.229 19.836L25.4995 19.836L25.4995 29.3188L15.9565 29.3188L15.9561 1Z" stroke="white" stroke-width="2"/>
<path fill-rule="evenodd" clip-rule="evenodd" d="M56.3212 10.3909L47.92 10.3909L47.92 1L74.2699 1L74.2699 10.3909L65.865 10.3909L65.865 29.3188L56.3216 29.3188L56.3212 10.3909Z" stroke="white" stroke-width="2"/>
<path fill-rule="evenodd" clip-rule="evenodd" d="M78.4519 1L88.4026 1L94.5236 10.9504L100.638 1L110.593 1L110.593 29.3188L101.089 29.3188L101.089 15.2825L94.5236 25.3514L94.3594 25.3514L87.7893 15.2825L87.7893 29.3188L78.4519 29.3188L78.4519 1Z" stroke="white" stroke-width="2"/>
<path fill-rule="evenodd" clip-rule="evenodd" d="M115.342 1L124.888 1L124.888 19.9582L138.308 19.9582L138.308 29.3188L115.342 29.3188L115.342 1Z" stroke="white" stroke-width="2"/>
</svg>
