<svg width="39" height="36" viewBox="0 0 39 36" fill="none" xmlns="http://www.w3.org/2000/svg">
<g clip-path="url(#clip0_1_70)">
<path d="M19.0842 36C29.6026 36 38.1294 27.9411 38.1294 18C38.1294 8.05888 29.6026 0 19.0842 0C8.56587 0 0.0390625 8.05888 0.0390625 18C0.0390625 27.9411 8.56587 36 19.0842 36Z" fill="#007AB9"/>
<path d="M30.4634 19.4486V26.8696H25.9111V19.946C25.9111 18.2075 25.2538 17.0203 23.6056 17.0203C22.3477 17.0203 21.6005 17.8196 21.2705 18.5935C21.1507 18.8701 21.1198 19.2542 21.1198 19.6421V26.8693H16.5671C16.5671 26.8693 16.6282 15.1429 16.5671 13.9291H21.1201V15.7628C21.111 15.7773 21.098 15.7914 21.0899 15.8052H21.1201V15.7628C21.7251 14.883 22.804 13.6252 25.223 13.6252C28.218 13.6252 30.4634 15.4747 30.4634 19.4486ZM11.8046 7.69141C10.2473 7.69141 9.22852 8.65754 9.22852 9.92689C9.22852 11.1693 10.2178 12.1633 11.7449 12.1633H11.7744C13.3622 12.1633 14.3495 11.1693 14.3495 9.92689C14.3193 8.65754 13.3622 7.69141 11.8046 7.69141ZM9.4991 26.8696H14.0501V13.9291H9.4991V26.8696Z" fill="#F1F2F2"/>
</g>
<defs>
<clipPath id="clip0_1_70">
<rect width="38.0903" height="36" fill="white" transform="translate(0.0390625)"/>
</clipPath>
</defs>
</svg>
