<svg width="82" height="96" viewBox="0 0 82 96" fill="none" xmlns="http://www.w3.org/2000/svg">
<g filter="url(#filter0_f_17_1792)">
<path fill-rule="evenodd" clip-rule="evenodd" d="M71.069 63.1123C70.8496 64.0236 70.4566 65.1275 69.9433 66.3464C69.5682 66.2678 69.2064 66.336 69.0076 66.3735C68.9447 66.3853 68.8975 66.3942 68.8721 66.3942C68.7569 66.3942 68.3472 67.0393 67.9562 67.6551C67.7078 68.0463 67.4668 68.4259 67.3138 68.6203C66.9026 69.138 65.7897 70.0355 65.002 70.536C64.214 71.0365 63.5978 71.3126 61.9196 71.1918C60.4101 71.0676 59.8703 70.5944 59.3908 70.174C59.364 70.1505 59.3367 70.1266 59.3101 70.1035C59.2837 70.0806 59.2574 70.0579 59.2309 70.0355C59.1919 70.0013 59.1529 69.9676 59.1142 69.9342C58.6259 69.5124 58.1767 69.1245 58.2719 68.0853C58.2852 67.9607 58.2988 67.8402 58.3118 67.7239C58.4165 66.7925 58.4908 66.131 58.1865 65.8242C57.9607 65.5966 57.6807 65.4848 57.2324 65.4331C57.3094 65.2268 57.4298 65.0013 57.6217 64.6858C58.0373 64.0504 58.0211 62.8952 58.0048 61.7261C58.0016 61.4982 57.9984 61.2697 57.9984 61.0445C57.9984 57.4545 57.5872 53.7959 56.7652 51.1036C56.2709 49.4504 55.5849 48.1241 54.8814 46.764C54.5127 46.0511 54.1391 45.3288 53.7858 44.5453C52.8592 42.4989 52.3714 40.9611 51.947 39.6236C51.4301 37.9945 51.0075 36.6626 50.0014 35.0704C49.2096 33.8015 48.8655 32.6938 48.5924 31.8148C48.3919 31.1693 48.2297 30.6471 47.9567 30.2751C48.2851 29.6612 48.4544 28.8719 48.5196 27.8367C48.5815 26.9126 48.0026 26.3379 47.143 25.9159C47.8353 25.4053 48.2116 24.6836 48.4597 23.7483C48.8709 22.1951 48.8881 20.4692 47.7407 18.4499C46.6619 16.5172 46.0454 16.2063 44.4869 16.0855C42.0897 15.8784 40.9592 17.5698 40.4286 18.7779C39.9604 19.8647 39.9624 19.9206 39.9962 20.8504C40.0032 21.0427 40.0116 21.2725 40.0174 21.5565C40.031 22.2409 40.1895 22.7315 40.4134 23.1408C39.6083 22.9153 38.6379 22.8275 37.8516 22.9252C37.6205 22.952 37.4113 22.9651 37.2133 22.9776C36.843 23.0008 36.5117 23.0216 36.149 23.125C36.3429 22.6287 36.4643 22.059 36.4555 21.1595C36.4555 19.5675 36.0038 18.9447 35.302 17.9772C35.243 17.8959 35.1823 17.8121 35.1199 17.7251C34.3493 16.6551 33.1163 16.6033 32.3457 16.7414C31.9005 16.8104 31.3185 17.3799 30.9244 18.2256C30.6675 18.7951 30.462 19.52 30.4447 20.2794C30.3933 22.3159 30.5648 23.0925 31.0269 24.4732C31.2557 25.1503 31.6216 25.6921 32.0425 26.0647C32.0152 26.0876 31.9881 26.1101 31.9613 26.1325C30.9151 27.0049 30.2359 27.5713 30.2665 28.8319C30.2728 29.4962 30.529 30.0831 30.9272 30.6239C30.8555 30.7223 30.813 30.8935 30.8045 31.1522C30.7653 32.416 30.7878 32.9455 30.8142 33.5679C30.8339 34.0335 30.8559 34.551 30.8559 35.4669C30.8559 36.4176 30.5692 36.783 29.9659 37.5519C29.6602 37.9415 29.2732 38.4347 28.801 39.1602C28.0818 40.2993 27.5167 41.5246 27.0714 42.7672C26.7974 43.5094 26.5406 44.286 26.3351 45.0454C26.2923 45.2352 26.2323 45.4294 26.1724 45.6235C26.1125 45.8177 26.0525 46.0118 26.0097 46.2017C25.6724 47.4537 24.9201 48.8451 24.1648 50.2421C23.348 51.7528 22.5277 53.2698 22.2252 54.6238C22.0995 55.183 21.9689 55.6986 21.8424 56.1985C21.3831 58.0129 20.9765 59.6187 21.0437 62.3387C21.1096 65.0115 21.1451 65.0305 21.6357 65.2933C21.7819 65.3716 21.9684 65.4715 22.2081 65.6696C22.5275 65.9379 22.8503 66.2012 23.1922 66.4802C23.9502 67.0984 24.8033 67.7944 25.9241 68.7934C26.5301 69.3247 27.3677 69.9965 28.2183 70.6788C29.7715 71.9245 31.3682 73.2052 31.6779 73.7293C32.1916 74.5577 32.1745 76.4216 31.8662 77.0257C31.5769 77.5766 29.1895 77.8993 28.9127 77.9367C28.8946 77.9392 28.8866 77.9404 28.8866 77.9404C28.8697 77.9404 31.2326 81.2195 31.6952 81.6852C31.7044 81.6945 31.7141 81.7044 31.7246 81.715L31.7256 81.7161C32.2245 82.2241 34.2241 84.2604 41.8671 82.8243C46.268 81.9961 49.6758 79.5109 52.1417 77.1117C52.6791 76.5847 53.08 76.1211 53.3771 75.7069C53.358 76.0177 53.3347 76.32 53.3061 76.6107C53.1167 78.5623 52.8281 80.1264 52.572 81.5143C52.2959 83.0107 52.0575 84.3024 52.022 85.6545C51.9858 86.764 52.1211 87.7193 52.349 88.5045C47.6 87.2584 45.8053 87.3703 41.2744 87.653C40.8284 87.6808 40.356 87.7102 39.8516 87.7402C38.4749 87.8225 37.4977 87.8557 36.7588 87.8808C35.7163 87.9162 35.1478 87.9355 34.6006 88.0539C33.9447 88.1957 33.3192 88.4798 31.9439 89.1044L31.7175 89.2072C31.5726 89.2733 31.4139 89.3017 31.2426 89.2952C31.3541 89.2074 31.4586 89.1276 31.5564 89.053C32.5077 88.3271 32.8316 88.08 32.7909 85.4991C32.7568 83.3479 31.8344 82.1981 30.5327 80.5758C29.8712 79.7514 29.1119 78.805 28.3215 77.5432C27.0405 75.4983 26.3466 74.3641 25.727 73.3513C25.2119 72.5092 24.7477 71.7506 24.0404 70.6225C22.4821 68.1718 19.3997 63.7191 17.6359 63.6671C16.4461 63.6378 15.6989 64.1785 14.9673 64.8904C14.8736 64.5149 14.7861 64.1825 14.7073 63.8833C14.0426 61.3586 13.9999 61.1967 16.1515 57.4688C17.2752 55.5221 17.9665 53.5858 18.687 51.5675C19.5698 49.0947 20.4966 46.4989 22.3163 43.6101C23.4118 41.8653 24.5638 40.4049 25.6044 39.0857C27.7032 36.4249 29.3492 34.3383 29.166 31.65C29.1191 31.0002 29.0725 30.3647 29.027 29.743C28.0269 16.0799 27.5172 9.11542 33.8069 5.81394C40.0744 2.53482 45.3145 4.48503 47.3865 5.60684C47.4311 5.63104 47.478 5.65636 47.5271 5.68285C48.4577 6.1852 50.1599 7.10417 51.445 8.6616C52.7978 10.2666 54.0136 12.7001 54.6986 15.7721C55.3781 18.7533 55.2637 19.8153 55.145 20.9169C55.0184 22.0921 54.887 23.3124 55.709 26.9557C57.024 32.8333 59.4727 36.2098 62.5171 40.4077L62.5185 40.4095C63.1207 41.24 63.7463 42.1026 64.391 43.0231C68.2949 48.5979 72.3704 57.7967 71.069 63.1123ZM45.676 8.33309C45.4292 8.82208 45.1816 10.2195 45.6692 9.9494C45.8318 9.85885 46.0449 9.77565 46.2603 9.69154C46.6647 9.53362 47.0773 9.37246 47.1804 9.15335C47.2712 8.63176 45.9515 7.7602 45.676 8.33309ZM34.8133 15.9678C34.7033 16.0725 34.8627 16.1896 35.1052 16.3678C35.1947 16.4335 35.2956 16.5076 35.3984 16.5925C35.5655 16.731 35.6715 16.8872 35.7562 17.0119C35.8736 17.1849 35.9498 17.2971 36.0905 17.2172C36.3243 17.0868 35.978 16.6649 35.7587 16.4039C35.4685 16.0484 34.9686 15.8336 34.8133 15.9678ZM46.0026 15.2787C45.9912 15.3741 46.1917 15.4514 46.3833 15.5254C46.4396 15.5471 46.4952 15.5685 46.5444 15.5901C46.7615 15.6766 47.1792 16.005 47.3718 16.2401C47.3852 16.257 47.4001 16.276 47.4162 16.2968L47.4516 16.3424C47.6676 16.6213 48.0438 17.107 48.1313 16.9722C48.2231 16.8274 48.013 16.3979 47.7743 16.1565C47.5502 15.9156 47.2988 15.6507 46.8752 15.4201C46.5365 15.2336 46.0162 15.1799 46.0026 15.2787ZM20.2942 62.9554C19.2328 61.3331 19.2799 59.0809 19.3869 57.6741C19.4425 57.3723 18.9673 57.5019 18.8943 57.6786C18.8132 58.0195 18.5949 59.4951 18.7488 60.3019C18.9842 61.5402 19.2839 62.5585 19.9646 63.3696C20.6324 64.1892 21.3559 64.5734 20.2942 62.9554ZM20.4564 53.9297C21.3207 51.3948 21.7236 50.6103 22.2997 49.5029C22.8729 48.3983 22.9202 47.5826 22.5014 48.1191C21.9921 48.7747 21.1651 50.6017 20.8453 51.308L20.7916 51.4267C20.7916 51.4267 20.1917 52.7204 20.1087 53.6094C20.0887 53.9208 20.3575 54.2065 20.4564 53.9297ZM56.7011 45.5468C56.4193 45.0979 58.6457 45.7836 60.0782 47.5447C60.297 47.8144 59.9167 48.132 59.6722 47.8748C58.3667 46.5226 56.9441 45.6893 56.7276 45.5625C56.7186 45.5572 56.7116 45.5531 56.7069 45.5503L56.7029 45.5479L56.7011 45.5468ZM62.7531 51.3136C63.4685 52.5967 63.6555 55.2766 63.3044 56.2471C63.224 56.4667 62.785 56.0312 62.7876 55.7263C62.9111 53.1832 61.914 51.2438 61.603 50.639C61.5459 50.5278 61.5117 50.4614 61.5123 50.4451C61.4983 50.3931 61.7934 50.005 61.9949 50.0515C62.1363 50.0873 62.2917 50.4028 62.4756 50.7759C62.5614 50.9501 62.6534 51.1368 62.7531 51.3136ZM64.1922 63.7113C63.7431 63.6478 63.3994 63.5992 63.3707 63.4267C63.3351 63.2584 63.7001 63.1906 64.2912 63.2464C64.909 63.3146 65.4077 63.5008 66.0664 63.7468L66.0688 63.7477C66.1574 63.7807 66.2489 63.8149 66.3439 63.85C67.403 64.2393 67.8963 64.6432 67.956 65.1278C68.0062 65.5293 67.795 65.7573 67.4744 65.7379C67.3095 65.7114 67.3095 65.6568 67.3095 65.5516C67.3095 65.4211 67.3095 65.2129 66.9958 64.8841C66.3627 64.2557 66.0466 64.1614 65.1802 63.9028L65.1597 63.8967C64.8315 63.8018 64.4889 63.7533 64.1922 63.7113ZM61.3544 63.7709C60.327 63.7709 59.7528 64.268 59.3849 64.5865C59.3456 64.6205 59.3084 64.6527 59.2736 64.6818C59.2571 64.702 59.2408 64.7219 59.2247 64.7413C59.2132 64.7558 59.2016 64.7703 59.1903 64.7845C59.1721 64.8074 59.154 64.8298 59.1361 64.8514C59.1109 64.8839 59.086 64.9155 59.0613 64.9454C59.0345 64.9806 59.0079 65.0146 58.9815 65.0464C58.9571 65.0786 58.9329 65.1097 58.9087 65.1388C58.885 65.1704 58.8614 65.2008 58.8378 65.2293C58.8146 65.2604 58.7915 65.2903 58.7684 65.3183C58.5901 65.5594 58.4127 65.725 58.2206 65.5315C58.0151 65.3242 58.4606 64.6683 58.854 64.2021C59.2652 63.7191 59.9502 63.1838 60.9776 63.0458C61.1349 63.022 61.2762 63.0011 61.4027 62.9843C61.3891 62.72 61.5481 62.2856 61.7634 61.6972C61.9257 61.2539 62.12 60.7229 62.2964 60.1118C62.4268 59.6469 62.5395 58.7856 62.6242 58.1376C62.6842 57.6792 62.7302 57.3275 62.7585 57.2989C62.9812 57.0746 63.5291 57.7131 63.5291 58.0753C63.5567 59.2837 62.6529 62.0003 62.0222 62.9437C62.2618 62.9641 62.3637 63.0622 62.3816 63.2874C62.3849 63.3165 62.3884 63.3438 62.3916 63.3695C62.4387 63.74 62.4427 63.7709 61.3544 63.7709ZM38.2357 21.3038C38.4883 21.2557 38.7856 21.2863 39.2558 21.5078C39.5788 21.6675 39.4409 21.759 38.963 21.6576C38.6667 21.5951 38.6425 21.5912 38.5719 21.5798C38.5342 21.5737 38.4834 21.5656 38.3711 21.5452C37.8302 21.4548 37.7356 21.3952 38.2357 21.3038Z" fill="white"/>
<path d="M36.251 44.2606C36.3478 44.2714 36.6461 44.2232 36.9709 44.1708C37.45 44.0934 37.9867 44.0067 38.0186 44.0866C38.0428 44.1354 37.8537 44.2234 37.6106 44.3365C37.3215 44.4711 36.9561 44.6411 36.7828 44.8229C36.6765 44.9301 36.3973 45.1846 36.2246 45.1578C36.148 45.1501 36.0891 45.0537 36.0149 44.9324C35.9602 44.8429 35.8972 44.7399 35.8127 44.6489C35.585 44.4194 35.3964 44.3082 35.2713 44.2345C35.1337 44.1534 35.073 44.1176 35.1218 44.0194C35.167 43.9356 35.3934 44.0124 35.656 44.1015C35.8545 44.1689 36.0737 44.2432 36.251 44.2606Z" fill="white"/>
<path d="M34.7416 58.3803C34.8722 56.2692 34.9662 54.749 34.5376 54.7274C33.8527 54.6929 33.2533 59.2319 33.2535 63.2186C33.2535 67.2053 34.11 69 34.6064 68.4995C34.8858 68.2178 34.8398 67.6517 34.7462 66.4997C34.6735 65.605 34.5721 64.357 34.5721 62.6143C34.5721 61.121 34.6634 59.6446 34.7416 58.3803Z" fill="white"/>
<path d="M46.8505 44.6791C46.9794 44.2306 50.2589 44.1244 51.0555 44.2541C51.852 44.384 54.874 48.1732 54.253 48.4213C53.959 48.5387 53.5837 48.1585 53.0598 47.6279C52.4773 47.0379 51.711 46.2618 50.6687 45.7769C49.6001 45.2798 48.5348 45.1303 47.801 45.0273C47.1757 44.9395 46.7912 44.8855 46.8505 44.6791Z" fill="white"/>
<path fill-rule="evenodd" clip-rule="evenodd" d="M70.8071 66.9292C71.8688 68.4822 70.7726 70.5017 71.5435 71.7445C72.8107 73.781 75.3622 75.8346 76.3383 76.4041C77.0404 76.8356 78.0336 77.2495 77.9991 78.5094C77.9478 79.9421 77.2456 80.3218 76.852 80.7187C76.0641 81.5129 72.0912 83.4974 69.4543 85.3095C66.1322 87.6049 64.9849 88.6231 63.906 89.7102C62.2279 91.4018 60.6353 91.9711 58.0838 91.9711C55.5322 91.9711 54.3849 91.4363 53.5974 90.7284C52.8095 90.0381 51.9364 88.2775 52.022 85.6545C52.0905 83.0484 52.9125 80.6665 53.3061 76.6107C53.4776 74.8679 53.4602 72.7105 53.4602 70.7946C53.4602 68.3784 53.4945 66.3246 54.0082 66.0142C54.9331 65.4274 55.1384 65.3929 56.2343 65.3929C57.3301 65.3929 57.8269 65.4617 58.1865 65.8242C58.5288 66.1693 58.392 66.9632 58.2719 68.0853C58.1692 69.2073 58.7003 69.5695 59.2309 70.0355C59.7617 70.4842 60.2412 71.0537 61.9196 71.1918C63.5978 71.3126 64.214 71.0365 65.002 70.536C65.7897 70.0355 66.9026 69.138 67.3138 68.6203C67.7076 68.1198 68.6837 66.3942 68.8721 66.3942C69.0431 66.3942 70.1735 65.9972 70.8071 66.9292Z" fill="white"/>
<path fill-rule="evenodd" clip-rule="evenodd" d="M11.0772 69.5872C9.53628 70.709 5.6317 70.6055 4.63849 71.9169C3.6624 73.2288 4.67297 75.1272 4.65561 78.6477C4.65561 80.1494 4.39875 81.2885 4.2275 82.203C3.98776 83.3593 3.83364 84.1707 4.31312 84.9989C5.18647 86.4661 6.59042 86.8285 14.622 88.5196C18.9202 89.417 22.9786 91.7469 25.7014 91.9711C28.4242 92.1784 29.0064 91.2637 30.6675 89.7792C32.3114 88.295 32.8423 88.761 32.7909 85.4991C32.7395 82.2548 30.6675 81.2883 28.3215 77.5432C25.9754 73.7981 25.5987 73.1077 24.0404 70.6225C22.4821 68.1718 19.3997 63.7191 17.6359 63.6671C16.2317 63.6326 15.4439 64.3919 14.5706 65.2896C13.6973 66.1873 12.6184 68.4652 11.0772 69.5872Z" fill="white"/>
<path fill-rule="evenodd" clip-rule="evenodd" d="M34.4174 20.3314C34.1094 19.8654 33.4587 19.5203 32.945 19.5203C32.397 19.5203 32.0031 19.7446 31.6949 20.2279C31.3236 20.7749 31.3453 21.3819 31.3628 21.8687C31.3662 21.9655 31.3695 22.0576 31.3695 22.1436C31.3695 22.972 31.9346 23.973 32.123 24.1801C32.2854 24.3488 32.4041 24.5009 32.506 24.6314C32.748 24.9413 32.8949 25.1293 33.3046 25.1293C33.5614 25.1293 34.0067 25.0257 34.2122 24.9049C34.8627 24.5252 34.9825 23.2999 34.9825 22.1953C34.9825 21.4532 34.7428 20.7974 34.4174 20.3314ZM34.0327 21.0673C33.8146 20.5865 33.2147 20.4767 33.0649 20.7101C32.9276 20.9243 33.0763 21.1385 33.3642 21.5532C33.3905 21.591 33.4179 21.6305 33.4464 21.6718C33.5828 21.8807 33.645 22.0985 33.6958 22.2766C33.772 22.5435 33.8227 22.7213 34.0598 22.6472C34.2096 22.5923 34.2508 21.5481 34.0327 21.0673Z" fill="white"/>
<path fill-rule="evenodd" clip-rule="evenodd" d="M46.6102 22.0917C46.3533 20.6075 45.5998 19.4511 44.3155 19.4511C43.7675 19.4511 43.1168 19.5372 42.7574 19.9344C42.278 20.4694 42.004 21.1425 42.004 22.0917C42.004 22.9374 42.0896 24.1282 42.4663 24.6632C42.7893 25.1074 43.3646 25.0943 43.9216 25.0816C44.0139 25.0795 44.1056 25.0774 44.1956 25.0774C44.8635 25.0774 45.6855 24.6977 46.1478 24.0764C46.5588 23.5414 46.7129 22.7648 46.6102 22.0917ZM45.3378 20.6226C45.0241 20.2649 44.7237 20.1273 44.5874 20.2649C44.3591 20.4832 44.503 20.6251 44.7319 20.8507C44.7768 20.8949 44.8248 20.9423 44.874 20.9941C44.9289 21.0579 44.9772 21.1547 45.0255 21.2514C45.1332 21.4671 45.2407 21.6824 45.4199 21.5303C45.6926 21.3103 45.6791 21.0078 45.3378 20.6226Z" fill="white"/>
<path fill-rule="evenodd" clip-rule="evenodd" d="M37.8516 22.9252C39.0943 22.7708 40.797 23.0798 41.5802 23.6633C42.3123 24.2122 42.8234 24.5046 43.4872 24.7271C45.7169 25.4649 48.6552 25.8126 48.5196 27.8367C48.3671 30.2553 47.647 31.3318 45.6558 31.9651C44.0568 32.462 41.1921 35.2224 38.9797 35.2346C37.9784 35.2423 36.6189 35.2907 35.8195 35.0005C35.0549 34.7267 33.9794 33.4165 32.7203 32.3712C31.4619 31.3424 30.2801 30.268 30.2665 28.8319C30.2301 27.3333 31.1969 26.8158 32.5909 25.5989C33.3213 24.9493 34.6349 23.8483 35.5551 23.3617C36.4025 22.9295 36.9662 23.028 37.8516 22.9252Z" fill="white"/>
<path fill-rule="evenodd" clip-rule="evenodd" d="M39.0527 25.3612C39.2016 25.6714 39.5835 25.7143 39.8385 25.8533C40.0828 25.9926 40.2205 26.0245 40.3163 25.971C40.5287 25.8533 40.3696 25.4681 40.1572 25.3291C39.955 25.1901 38.9678 25.1577 39.0527 25.3612Z" fill="white"/>
<path fill-rule="evenodd" clip-rule="evenodd" d="M35.1612 25.8889C35.111 26.0159 35.4644 26.258 35.6414 26.0927C35.8309 25.9273 36.0583 25.7743 36.1342 25.7235C36.4752 25.4941 36.3487 25.329 35.7805 25.4308C35.2123 25.5327 35.2118 25.7616 35.1612 25.8889Z" fill="white"/>
<path fill-rule="evenodd" clip-rule="evenodd" d="M31.214 30.1367C31.5275 30.1788 32.1128 30.6345 32.8078 31.105C33.8383 31.9016 35.3515 32.2108 36.4429 32.2837C39.0489 32.589 43.5317 30.1508 44.3772 29.4712C45.3661 28.7449 46.4968 27.8269 46.9475 27.7435C47.1601 28.0532 46.5841 28.0961 45.7823 28.7704C44.9104 29.3528 44.4604 29.7215 43.2703 30.3994C41.9098 31.1168 39.4466 32.5111 36.5166 32.4853C34.9015 32.3 34.0774 32.095 33.5275 31.7664C32.7462 31.2796 31.724 30.727 31.214 30.1367Z" fill="white"/>
</g>
<defs>
<filter id="filter0_f_17_1792" x="0" y="0.000244141" width="82" height="95.9998" filterUnits="userSpaceOnUse" color-interpolation-filters="sRGB">
<feFlood flood-opacity="0" result="BackgroundImageFix"/>
<feBlend mode="normal" in="SourceGraphic" in2="BackgroundImageFix" result="shape"/>
<feGaussianBlur stdDeviation="2" result="effect1_foregroundBlur_17_1792"/>
</filter>
</defs>
</svg>
