<svg width="124" height="146" viewBox="0 0 124 146" fill="none" xmlns="http://www.w3.org/2000/svg">
<path fill-rule="evenodd" clip-rule="evenodd" d="M112.386 98.0723C112.018 99.5843 111.36 101.416 110.5 103.438C109.871 103.308 109.265 103.421 108.932 103.483C108.826 103.502 108.747 103.517 108.705 103.517C108.512 103.517 107.825 104.588 107.17 105.609C106.754 106.258 106.35 106.888 106.093 107.211C105.404 108.07 103.54 109.558 102.22 110.389C100.899 111.219 99.8666 111.677 97.0545 111.477C94.525 111.271 93.6206 110.486 92.817 109.788C92.7721 109.749 92.7264 109.71 92.6818 109.671C92.6376 109.633 92.5934 109.596 92.549 109.558C92.4837 109.502 92.4185 109.446 92.3536 109.39C91.5353 108.691 90.7827 108.047 90.9421 106.323C90.9645 106.116 90.9871 105.916 91.009 105.723C91.1844 104.178 91.3089 103.081 90.799 102.571C90.4206 102.194 89.9515 102.008 89.2002 101.923C89.3293 101.58 89.531 101.206 89.8526 100.683C90.5489 99.6286 90.5219 97.712 90.4945 95.7725C90.4892 95.3944 90.4839 95.0153 90.4839 94.6416C90.4839 88.6854 89.7948 82.6155 88.4174 78.1487C87.5891 75.406 86.4396 73.2056 85.2608 70.949C84.6429 69.7662 84.0169 68.5679 83.4249 67.268C81.8723 63.8727 81.0547 61.3214 80.3436 59.1024C79.4776 56.3996 78.7694 54.1898 77.0834 51.5482C75.7567 49.443 75.18 47.6052 74.7225 46.1468C74.3864 45.0759 74.1146 44.2096 73.6572 43.5924C74.2075 42.5738 74.4911 41.2643 74.6004 39.5468C74.7041 38.0136 73.7342 37.0601 72.2937 36.3601C73.4538 35.5129 74.0843 34.3156 74.5001 32.7639C75.1891 30.1868 75.2178 27.3235 73.2953 23.9734C71.4875 20.7668 70.4545 20.251 67.8428 20.0506C63.826 19.707 61.9317 22.5131 61.0426 24.5174C60.258 26.3205 60.2614 26.4134 60.318 27.9559C60.3297 28.2751 60.3437 28.6562 60.3535 29.1274C60.3762 30.2629 60.6419 31.0769 61.0171 31.7559C59.6679 31.3818 58.0419 31.2361 56.7243 31.3982C56.3371 31.4427 55.9865 31.4645 55.6547 31.4851C55.0342 31.5236 54.479 31.5581 53.8713 31.7297C54.1962 30.9063 54.3996 29.9611 54.385 28.4688C54.385 25.8275 53.628 24.7943 52.452 23.189C52.3532 23.0541 52.2514 22.9151 52.1468 22.7708C50.8555 20.9955 48.7895 20.9096 47.4982 21.1387C46.7522 21.2532 45.7769 22.1981 45.1166 23.6011C44.6861 24.546 44.3418 25.7486 44.3127 27.0085C44.2266 30.3873 44.514 31.6758 45.2883 33.9665C45.6717 35.0898 46.2848 35.9887 46.9902 36.607C46.9444 36.6448 46.899 36.6823 46.854 36.7194C45.101 38.1669 43.9628 39.1066 44.0141 41.198C44.0246 42.3001 44.454 43.2738 45.1213 44.171C45.0011 44.3343 44.9299 44.6183 44.9157 45.0476C44.85 47.1443 44.8877 48.0228 44.9319 49.0554C44.965 49.8278 45.0018 50.6866 45.0018 52.206C45.0018 53.7834 44.5214 54.3895 43.5104 55.6653C42.9981 56.3117 42.3497 57.1299 41.5584 58.3336C40.3532 60.2234 39.4063 62.2563 38.6602 64.318C38.2011 65.5492 37.7707 66.8377 37.4263 68.0976C37.3546 68.4126 37.2542 68.7347 37.1537 69.0568C37.0533 69.3789 36.9529 69.701 36.8811 70.016C36.3159 72.0932 35.0553 74.4018 33.7897 76.7194C32.421 79.2257 31.0465 81.7427 30.5396 83.9892C30.3289 84.9168 30.1101 85.7723 29.8981 86.6016C29.1284 89.6118 28.4472 92.2761 28.5597 96.7887C28.6702 101.223 28.7296 101.255 29.5518 101.691C29.7967 101.821 30.1092 101.986 30.5109 102.315C31.0461 102.76 31.5869 103.197 32.16 103.66C33.43 104.686 34.8596 105.84 36.7377 107.498C37.7531 108.379 39.1566 109.494 40.582 110.626C43.1847 112.693 45.8603 114.817 46.3791 115.687C47.24 117.061 47.2113 120.154 46.6948 121.156C46.2099 122.07 42.2095 122.605 41.7456 122.667C41.7153 122.671 41.7019 122.673 41.7019 122.673C41.6736 122.673 45.6331 128.114 46.4082 128.886C46.4235 128.902 46.4399 128.918 46.4574 128.936L46.4591 128.938C47.2952 129.781 50.6458 133.159 63.4529 130.776C70.8275 129.402 76.5378 125.279 80.6698 121.299C81.5703 120.424 82.2421 119.655 82.74 118.968C82.7081 119.483 82.669 119.985 82.621 120.467C82.3036 123.705 81.8201 126.3 81.3909 128.603C80.9282 131.086 80.5289 133.229 80.4693 135.472C80.4086 137.313 80.6354 138.898 81.0172 140.2C73.0594 138.133 70.0521 138.319 62.4598 138.787C61.7125 138.834 60.9208 138.882 60.0756 138.932C57.7687 139.069 56.1313 139.124 54.8931 139.165C53.1463 139.224 52.1936 139.256 51.2767 139.453C50.1777 139.688 49.1294 140.159 46.8249 141.196L46.4456 141.366C46.2027 141.476 45.9367 141.523 45.6498 141.512C45.8366 141.366 46.0117 141.234 46.1756 141.11C47.7697 139.906 48.3123 139.496 48.2442 135.214C48.1872 131.645 46.6414 129.737 44.4601 127.046C43.3518 125.678 42.0794 124.108 40.7549 122.014C38.6084 118.622 37.4457 116.74 36.4074 115.06C35.5442 113.663 34.7665 112.404 33.5812 110.532C30.9699 106.466 25.8049 99.079 22.8493 98.9927C20.8557 98.9442 19.6036 99.8412 18.3776 101.022C18.2206 100.399 18.074 99.8478 17.942 99.3514C16.8281 95.1627 16.7567 94.8941 20.362 88.7091C22.245 85.4794 23.4033 82.2669 24.6107 78.9184C26.09 74.8158 27.6429 70.5091 30.6921 65.7164C32.5279 62.8216 34.4582 60.3987 36.202 58.2099C39.7189 53.7955 42.477 50.3336 42.1701 45.8734C42.0914 44.7955 42.0135 43.741 41.9372 42.7095C40.2614 20.0413 39.4071 8.48655 49.9468 3.00909C60.4491 -2.43128 69.2297 0.804308 72.7018 2.66548C72.7765 2.70564 72.8551 2.74765 72.9373 2.79159C74.4966 3.62504 77.3491 5.14969 79.5024 7.73361C81.7693 10.3965 83.8067 14.4339 84.9544 19.5306C86.093 24.4767 85.9013 26.2386 85.7024 28.0663C85.4903 30.016 85.2701 32.0406 86.6474 38.0851C88.8511 47.8367 92.9543 53.4385 98.0557 60.4032L98.058 60.4063C99.0671 61.7841 100.115 63.2153 101.196 64.7425C107.737 73.9915 114.567 89.2532 112.386 98.0723ZM69.8355 7.18858C69.4219 7.99986 69.007 10.3184 69.824 9.87019C70.0966 9.71996 70.4536 9.58193 70.8145 9.44238C71.4921 9.18037 72.1836 8.913 72.3563 8.54947C72.5085 7.6841 70.2971 6.23811 69.8355 7.18858ZM51.6331 19.8553C51.4488 20.029 51.7159 20.2233 52.1222 20.5188C52.2722 20.6279 52.4412 20.7509 52.6135 20.8917C52.8935 21.1215 53.0712 21.3807 53.2131 21.5876C53.4098 21.8745 53.5375 22.0607 53.7732 21.9281C54.165 21.7117 53.5847 21.0118 53.2173 20.5787C52.731 19.9889 51.8933 19.6326 51.6331 19.8553ZM70.3827 18.712C70.3636 18.8702 70.6996 18.9986 71.0206 19.1212C71.115 19.1573 71.2082 19.1929 71.2906 19.2286C71.6545 19.3721 72.3543 19.917 72.6771 20.3071C72.6995 20.3351 72.7245 20.3667 72.7515 20.4011L72.8107 20.4767C73.1727 20.9394 73.8031 21.7453 73.9497 21.5216C74.1035 21.2814 73.7516 20.5688 73.3515 20.1683C72.976 19.7686 72.5548 19.3292 71.845 18.9466C71.2775 18.6372 70.4055 18.5481 70.3827 18.712ZM27.3038 97.812C25.5252 95.1204 25.6041 91.3838 25.7834 89.0497C25.8767 88.549 25.0804 88.7642 24.958 89.0573C24.8221 89.6228 24.4563 92.071 24.7141 93.4096C25.1087 95.464 25.6109 97.1534 26.7515 98.4992C27.8706 99.8589 29.0829 100.496 27.3038 97.812ZM27.5757 82.8375C29.0239 78.6319 29.6991 77.3303 30.6643 75.493C31.6248 73.6604 31.7041 72.3071 31.0023 73.1971C30.1489 74.2849 28.7631 77.316 28.2273 78.4879L28.1372 78.6848C28.1372 78.6848 27.1321 80.8311 26.993 82.3062C26.9595 82.8227 27.4099 83.2968 27.5757 82.8375ZM88.3099 68.9295C87.8377 68.1847 91.5684 69.3225 93.9688 72.2443C94.3355 72.6917 93.6982 73.2186 93.2885 72.7919C91.101 70.5485 88.7172 69.166 88.3543 68.9556C88.3392 68.9468 88.3276 68.94 88.3197 68.9354L88.3129 68.9314L88.3099 68.9295ZM98.4512 78.4971C99.65 80.6259 99.9632 85.0721 99.375 86.6823C99.2403 87.0466 98.5045 86.324 98.5089 85.8181C98.7159 81.599 97.0451 78.3814 96.524 77.3779C96.4282 77.1935 96.371 77.0832 96.372 77.0563C96.3485 76.97 96.8431 76.3261 97.1806 76.4033C97.4175 76.4627 97.678 76.986 97.9861 77.605C98.1299 77.894 98.2841 78.2039 98.4512 78.4971ZM100.863 99.0661C100.11 98.9607 99.5341 98.8801 99.4861 98.5938C99.4263 98.3147 100.038 98.2021 101.028 98.2948C102.064 98.4079 102.899 98.7168 104.003 99.1249L104.007 99.1264C104.156 99.1813 104.309 99.2379 104.468 99.2962C106.243 99.942 107.069 100.612 107.17 101.416C107.254 102.082 106.9 102.461 106.362 102.428C106.086 102.384 106.086 102.294 106.086 102.119C106.086 101.903 106.086 101.557 105.561 101.012C104.5 99.9693 103.97 99.8128 102.518 99.3839L102.484 99.3737C101.934 99.2162 101.36 99.1358 100.863 99.0661ZM96.1073 99.1649C94.3857 99.1649 93.4236 99.9896 92.8071 100.518C92.7413 100.575 92.679 100.628 92.6206 100.676C92.5929 100.71 92.5656 100.743 92.5386 100.775C92.5194 100.799 92.5001 100.823 92.4811 100.847C92.4505 100.885 92.4202 100.922 92.3902 100.958C92.3479 101.011 92.3062 101.064 92.2649 101.114C92.2199 101.172 92.1754 101.228 92.1312 101.281C92.0903 101.335 92.0497 101.386 92.0092 101.434C91.9695 101.487 91.9299 101.537 91.8904 101.585C91.8516 101.636 91.8129 101.686 91.7741 101.732C91.4753 102.132 91.1781 102.407 90.8562 102.086C90.5118 101.742 91.2583 100.654 91.9175 99.8804C92.6066 99.079 93.7543 98.191 95.476 97.9619C95.7396 97.9225 95.9763 97.8878 96.1883 97.8598C96.1656 97.4214 96.432 96.7006 96.7928 95.7244C97.0646 94.989 97.3902 94.1081 97.6859 93.0942C97.9044 92.3229 98.0932 90.8938 98.2352 89.8189C98.3356 89.0582 98.4127 88.4748 98.4603 88.4274C98.8333 88.0551 99.7515 89.1145 99.7515 89.7155C99.7977 91.7202 98.2833 96.2273 97.2264 97.7926C97.6278 97.8263 97.7987 97.9892 97.8286 98.3628C97.8342 98.411 97.84 98.4564 97.8455 98.499C97.9244 99.1136 97.931 99.1649 96.1073 99.1649ZM57.368 28.7082C57.7912 28.6283 58.2894 28.6792 59.0773 29.0467C59.6185 29.3115 59.3874 29.4634 58.5867 29.2952C58.0902 29.1915 58.0496 29.185 57.9313 29.1661C57.8682 29.156 57.783 29.1424 57.5948 29.1087C56.6885 28.9588 56.5299 28.8598 57.368 28.7082Z" fill="white"/>
<path d="M54.0422 66.7955C54.2044 66.8135 54.7043 66.7336 55.2485 66.6466C56.0514 66.5182 56.9507 66.3743 57.0042 66.5068C57.0448 66.5878 56.7278 66.7339 56.3205 66.9215C55.836 67.1448 55.2237 67.4269 54.9334 67.7285C54.7552 67.9063 54.2873 68.3286 53.998 68.2841C53.8696 68.2713 53.7709 68.1114 53.6466 67.9102C53.5549 67.7617 53.4494 67.5908 53.3077 67.4398C52.9261 67.059 52.6101 66.8746 52.4006 66.7523C52.17 66.6177 52.0683 66.5584 52.15 66.3955C52.2258 66.2564 52.6051 66.3838 53.0451 66.5316C53.3778 66.6434 53.7451 66.7668 54.0422 66.7955Z" fill="white"/>
<path d="M51.513 90.2214C51.7317 86.7189 51.8893 84.1968 51.1712 84.161C50.0234 84.1037 49.0191 91.6343 49.0195 98.2486C49.0195 104.863 50.4546 107.84 51.2863 107.01C51.7545 106.543 51.6775 105.604 51.5206 103.692C51.3988 102.208 51.229 100.137 51.229 97.2461C51.229 94.7685 51.3819 92.3191 51.513 90.2214Z" fill="white"/>
<path d="M71.8035 67.4899C72.0195 66.7458 77.515 66.5697 78.8497 66.7848C80.1844 67.0004 85.2483 73.287 84.2077 73.6986C83.7152 73.8933 83.0862 73.2626 82.2084 72.3823C81.2322 71.4034 79.9482 70.1158 78.2017 69.3113C76.411 68.4866 74.6258 68.2385 73.3963 68.0676C72.3485 67.922 71.7041 67.8324 71.8035 67.4899Z" fill="white"/>
<path fill-rule="evenodd" clip-rule="evenodd" d="M111.947 104.405C113.726 106.981 111.889 110.332 113.181 112.394C115.304 115.773 119.58 119.18 121.216 120.125C122.392 120.84 124.056 121.527 123.999 123.617C123.912 125.994 122.736 126.624 122.076 127.283C120.756 128.6 114.099 131.893 109.68 134.899C104.113 138.708 102.191 140.397 100.383 142.201C97.571 145.007 94.9024 145.952 90.6269 145.952C86.3513 145.952 84.4288 145.064 83.1092 143.89C81.7889 142.745 80.3258 139.824 80.4693 135.472C80.5841 131.148 81.9614 127.196 82.621 120.467C82.9084 117.576 82.8793 113.997 82.8793 110.818C82.8793 106.809 82.9367 103.402 83.7975 102.887C85.3474 101.913 85.6914 101.856 87.5278 101.856C89.3639 101.856 90.1965 101.97 90.799 102.571C91.3725 103.144 91.1434 104.461 90.9421 106.323C90.77 108.184 91.6599 108.785 92.549 109.558C93.4386 110.303 94.242 111.248 97.0545 111.477C99.8666 111.677 100.899 111.219 102.22 110.389C103.54 109.558 105.404 108.07 106.093 107.211C106.753 106.38 108.389 103.517 108.705 103.517C108.991 103.517 110.885 102.859 111.947 104.405Z" fill="white"/>
<path fill-rule="evenodd" clip-rule="evenodd" d="M11.8591 108.815C9.27701 110.676 2.73419 110.504 1.06989 112.68C-0.56571 114.856 1.12768 118.006 1.09859 123.847C1.09859 126.338 0.668167 128.228 0.381219 129.745C-0.0205086 131.664 -0.278762 133.01 0.524693 134.384C1.98813 136.818 4.3407 137.42 17.799 140.225C25.0014 141.714 31.802 145.58 36.3645 145.952C40.927 146.296 41.9026 144.778 44.686 142.315C47.4407 139.853 48.3303 140.626 48.2442 135.214C48.1581 129.831 44.6861 128.228 40.7549 122.014C36.8237 115.801 36.1924 114.656 33.5812 110.532C30.9699 106.466 25.8049 99.079 22.8493 98.9927C20.4963 98.9354 19.1763 100.195 17.7129 101.685C16.2495 103.174 14.4417 106.953 11.8591 108.815Z" fill="white"/>
<path fill-rule="evenodd" clip-rule="evenodd" d="M50.9697 27.0949C50.4536 26.3218 49.3632 25.7491 48.5024 25.7491C47.5842 25.7491 46.9242 26.1214 46.4077 26.9231C45.7854 27.8306 45.8219 28.8377 45.8511 29.6453C45.8569 29.806 45.8625 29.9589 45.8625 30.1014C45.8625 31.4758 46.8094 33.1366 47.125 33.4802C47.3971 33.7601 47.5961 34.0124 47.7669 34.2289C48.1724 34.7431 48.4184 35.055 49.105 35.055C49.5354 35.055 50.2815 34.8832 50.6258 34.6828C51.7158 34.0528 51.9167 32.0199 51.9167 30.1873C51.9167 28.9561 51.5149 27.868 50.9697 27.0949ZM50.325 28.3158C49.9595 27.518 48.9544 27.3359 48.7033 27.7232C48.4733 28.0786 48.7224 28.4339 49.2049 29.1219C49.2489 29.1847 49.2949 29.2502 49.3426 29.3188C49.5712 29.6654 49.6754 30.0267 49.7606 30.3222C49.8882 30.7649 49.9732 31.06 50.3704 30.937C50.6215 30.8459 50.6905 29.1136 50.325 28.3158Z" fill="white"/>
<path fill-rule="evenodd" clip-rule="evenodd" d="M71.4008 30.0154C70.9704 27.5529 69.7079 25.6344 67.5557 25.6344C66.6375 25.6344 65.5471 25.7772 64.9449 26.4362C64.1415 27.3238 63.6823 28.4405 63.6823 30.0154C63.6823 31.4184 63.8258 33.3941 64.4571 34.2818C64.9984 35.0187 65.9623 34.997 66.8957 34.9759C67.0503 34.9724 67.204 34.969 67.3549 34.969C68.474 34.969 69.8513 34.339 70.6261 33.3082C71.3148 32.4206 71.573 31.1321 71.4008 30.0154ZM69.2687 27.5779C68.7431 26.9846 68.2397 26.7563 68.0114 26.9846C67.6287 27.3468 67.8699 27.5821 68.2535 27.9565C68.3286 28.0298 68.4092 28.1084 68.4916 28.1944C68.5835 28.3002 68.6645 28.4608 68.7454 28.6212C68.9259 28.9791 69.106 29.3363 69.4062 29.084C69.8634 28.7189 69.8407 28.217 69.2687 27.5779Z" fill="white"/>
<path fill-rule="evenodd" clip-rule="evenodd" d="M56.7243 31.3982C58.8067 31.1421 61.6599 31.6548 62.9723 32.6228C64.199 33.5335 65.0554 34.0186 66.1677 34.3877C69.904 35.6118 74.8276 36.1887 74.6004 39.5468C74.345 43.5595 73.1382 45.3456 69.8016 46.3963C67.1222 47.2207 62.3218 51.8004 58.6146 51.8207C56.9368 51.8334 54.6587 51.9138 53.3192 51.4322C52.0379 50.978 50.2357 48.8043 48.1259 47.0699C46.0172 45.3631 44.0369 43.5805 44.0141 41.198C43.9532 38.7117 45.5732 37.8531 47.9091 35.8341C49.133 34.7563 51.3341 32.9298 52.8761 32.1225C54.2961 31.4054 55.2406 31.5688 56.7243 31.3982Z" fill="white"/>
<path fill-rule="evenodd" clip-rule="evenodd" d="M58.7369 35.4398C58.9864 35.9544 59.6265 36.0256 60.0537 36.2563C60.463 36.4873 60.6938 36.5402 60.8544 36.4515C61.2103 36.2563 60.9436 35.6172 60.5877 35.3865C60.249 35.1559 58.5946 35.1022 58.7369 35.4398Z" fill="white"/>
<path fill-rule="evenodd" clip-rule="evenodd" d="M52.216 36.3153C52.1319 36.5261 52.7242 36.9277 53.0207 36.6533C53.3383 36.3789 53.7193 36.1252 53.8464 36.0409C54.4179 35.6603 54.2059 35.3863 53.2538 35.5553C52.3017 35.7243 52.3009 36.1041 52.216 36.3153Z" fill="white"/>
<path fill-rule="evenodd" clip-rule="evenodd" d="M45.6019 43.3627C46.1272 43.4327 47.108 44.1887 48.2725 44.9693C49.9994 46.2908 52.5349 46.8039 54.3638 46.9248C58.7306 47.4314 66.2423 43.3861 67.6591 42.2587C69.3162 41.0537 71.2108 39.5306 71.9661 39.3922C72.3224 39.906 71.3571 39.9772 70.0136 41.0959C68.5526 42.0622 67.7986 42.6739 65.8043 43.7985C63.5246 44.9888 59.397 47.3022 54.4874 47.2592C51.7809 46.9518 50.3999 46.6118 49.4785 46.0666C48.1693 45.2589 46.4564 44.3422 45.6019 43.3627Z" fill="white"/>
</svg>
