<svg width="142" height="168" viewBox="0 0 142 168" fill="none" xmlns="http://www.w3.org/2000/svg">
<path fill-rule="evenodd" clip-rule="evenodd" d="M128.7 112.85C128.279 114.59 127.525 116.698 126.54 119.025C125.82 118.875 125.126 119.005 124.744 119.076C124.624 119.099 124.533 119.116 124.484 119.116C124.263 119.116 123.477 120.347 122.727 121.523C122.25 122.27 121.788 122.994 121.494 123.366C120.705 124.354 118.569 126.067 117.058 127.023C115.546 127.978 114.363 128.505 111.143 128.275C108.246 128.038 107.211 127.134 106.29 126.332C106.239 126.287 106.187 126.241 106.136 126.197C106.085 126.153 106.034 126.11 105.984 126.067C105.909 126.002 105.834 125.938 105.76 125.874C104.823 125.069 103.961 124.328 104.143 122.344C104.169 122.106 104.195 121.876 104.22 121.654C104.421 119.876 104.563 118.613 103.98 118.027C103.546 117.593 103.009 117.38 102.149 117.281C102.296 116.887 102.527 116.457 102.896 115.854C103.693 114.641 103.662 112.436 103.631 110.204C103.625 109.769 103.619 109.333 103.619 108.903C103.619 102.049 102.83 95.0645 101.252 89.9246C100.304 86.7685 98.9873 84.2365 97.6374 81.64C96.9298 80.2789 96.2129 78.9 95.535 77.4043C93.7569 73.4974 92.8207 70.5616 92.0064 68.0082C91.0146 64.8982 90.2037 62.3554 88.2729 59.3158C86.7536 56.8934 86.0933 54.7786 85.5693 53.1005C85.1845 51.8681 84.8732 50.8713 84.3493 50.1612C84.9795 48.9891 85.3043 47.4822 85.4295 45.5059C85.5483 43.7417 84.4375 42.6446 82.788 41.8391C84.1165 40.8642 84.8385 39.4865 85.3146 37.7009C86.1037 34.7355 86.1365 31.4407 83.9349 27.5858C81.8647 23.8961 80.6817 23.3025 77.691 23.0719C73.091 22.6765 70.9218 25.9054 69.9036 28.2118C69.0051 30.2866 69.009 30.3935 69.0739 32.1685C69.0873 32.5357 69.1033 32.9743 69.1145 33.5165C69.1405 34.8231 69.4447 35.7597 69.8744 36.541C68.3294 36.1106 66.4673 35.943 64.9585 36.1294C64.515 36.1807 64.1136 36.2057 63.7336 36.2294C63.023 36.2738 62.3872 36.3135 61.6913 36.5109C62.0634 35.5634 62.2964 34.4758 62.2796 32.7587C62.2796 29.7193 61.4128 28.5304 60.066 26.6833C59.9528 26.528 59.8362 26.3681 59.7165 26.202C58.2378 24.1592 55.8718 24.0604 54.3931 24.3239C53.5388 24.4557 52.422 25.543 51.6657 27.1575C51.1728 28.2448 50.7785 29.6286 50.7452 31.0783C50.6466 34.9662 50.9757 36.4488 51.8624 39.0847C52.3014 40.3773 53.0036 41.4117 53.8113 42.1231C53.7589 42.1667 53.7069 42.2098 53.6554 42.2525C51.6479 43.9181 50.3446 44.9994 50.4033 47.4059C50.4153 48.6741 50.907 49.7945 51.6711 50.8269C51.5335 51.0149 51.452 51.3416 51.4357 51.8356C51.3605 54.2482 51.4036 55.2591 51.4543 56.4473C51.4922 57.3361 51.5343 58.3243 51.5343 60.0727C51.5343 61.8877 50.9842 62.5852 49.8264 64.0532C49.2398 64.797 48.4972 65.7386 47.5911 67.1236C46.2109 69.2981 45.1266 71.6374 44.2722 74.0097C43.7464 75.4265 43.2535 76.9092 42.8592 78.3589C42.7771 78.7213 42.662 79.092 42.547 79.4626C42.432 79.8333 42.317 80.204 42.2349 80.5664C41.5876 82.9566 40.1439 85.613 38.6946 88.2798C37.1272 91.1639 35.5532 94.0601 34.9728 96.6451C34.7314 97.7125 34.4809 98.6969 34.2381 99.6511C33.3567 103.115 32.5766 106.181 32.7054 111.373C32.832 116.476 32.9001 116.512 33.8415 117.014C34.122 117.163 34.4799 117.354 34.9399 117.732C35.5528 118.245 36.1721 118.747 36.8284 119.28C38.2828 120.46 39.9198 121.789 42.0706 123.696C43.2334 124.71 44.8407 125.993 46.473 127.295C49.4534 129.674 52.5174 132.119 53.1116 133.119C54.0974 134.701 54.0645 138.259 53.473 139.412C52.9177 140.464 48.3367 141.08 47.8054 141.151C47.7708 141.156 47.7554 141.158 47.7554 141.158C47.723 141.158 52.2572 147.419 53.1449 148.308C53.1624 148.325 53.1812 148.344 53.2012 148.365L53.2032 148.367C54.1606 149.337 57.9976 153.224 72.6639 150.482C81.1089 148.901 87.6481 144.157 92.38 139.576C93.4112 138.57 94.1805 137.685 94.7507 136.895C94.7141 137.488 94.6693 138.065 94.6144 138.62C94.2509 142.346 93.6972 145.332 93.2057 147.981C92.6759 150.838 92.2185 153.304 92.1503 155.885C92.0808 158.004 92.3405 159.827 92.7778 161.326C83.6648 158.947 80.2209 159.161 71.5265 159.701C70.6708 159.754 69.7642 159.81 68.7963 159.867C66.1545 160.024 64.2794 160.088 62.8614 160.136C60.8611 160.203 59.7701 160.24 58.72 160.466C57.4615 160.737 56.2611 161.279 53.6221 162.472L53.1877 162.668C52.9096 162.794 52.605 162.848 52.2764 162.836C52.4902 162.668 52.6908 162.516 52.8786 162.373C54.704 160.988 55.3254 160.516 55.2474 155.589C55.1821 151.482 53.4119 149.287 50.914 146.19C49.6448 144.616 48.1877 142.809 46.6709 140.4C44.2128 136.496 42.8814 134.331 41.6923 132.397C40.7038 130.79 39.8132 129.342 38.4559 127.188C35.4656 122.509 29.5508 114.009 26.1662 113.909C23.8831 113.854 22.4493 114.886 21.0453 116.245C20.8656 115.528 20.6976 114.893 20.5465 114.322C19.2709 109.502 19.1891 109.193 23.3178 102.076C25.4741 98.3599 26.8006 94.6633 28.1832 90.8102C29.8773 86.0895 31.6556 81.1338 35.1475 75.6189C37.2497 72.2879 39.4602 69.4999 41.4571 66.9813C45.4845 61.9017 48.643 57.9181 48.2915 52.7859C48.2015 51.5455 48.1122 50.3321 48.0249 49.1452C46.1058 23.0612 45.1275 9.76534 57.1971 3.46251C69.2239 -2.79763 79.2792 0.925505 83.2552 3.06713C83.3408 3.11334 83.4308 3.16168 83.525 3.21225C85.3106 4.17128 88.5772 5.92567 91.0431 8.89895C93.6391 11.9631 95.9721 16.6088 97.2865 22.4736C98.5903 28.165 98.3708 30.1923 98.1431 32.2955C97.9002 34.5389 97.648 36.8686 99.2253 43.824C101.749 55.045 106.448 61.4909 112.29 69.5051L112.292 69.5087C113.448 71.0941 114.648 72.7409 115.885 74.4982C123.377 85.1409 131.197 102.702 128.7 112.85ZM79.973 8.27179C79.4992 9.20532 79.0241 11.8732 79.9597 11.3575C80.2719 11.1846 80.6807 11.0258 81.094 10.8652C81.87 10.5637 82.6619 10.2561 82.8596 9.83774C83.034 8.84198 80.5015 7.1781 79.973 8.27179ZM59.1282 22.8472C58.9172 23.0471 59.223 23.2706 59.6883 23.6107C59.8601 23.7363 60.0536 23.8777 60.2509 24.0398C60.5716 24.3041 60.7751 24.6024 60.9376 24.8405C61.1628 25.1706 61.3091 25.3849 61.579 25.2323C62.0276 24.9834 61.3631 24.178 60.9423 23.6796C60.3855 23.001 59.4262 22.591 59.1282 22.8472ZM80.5996 21.5316C80.5777 21.7137 80.9624 21.8614 81.3301 22.0025C81.4382 22.044 81.5449 22.0849 81.6393 22.126C82.0559 22.2912 82.8574 22.9182 83.227 23.3671C83.2527 23.3993 83.2812 23.4356 83.3122 23.4752L83.38 23.5623C83.7945 24.0947 84.5165 25.022 84.6843 24.7646C84.8605 24.4882 84.4575 23.6682 83.9993 23.2074C83.5693 22.7475 83.0869 22.2418 82.2741 21.8016C81.6242 21.4456 80.6256 21.343 80.5996 21.5316ZM31.2673 112.551C29.2304 109.454 29.3208 105.154 29.5262 102.468C29.633 101.892 28.7211 102.14 28.581 102.477C28.4254 103.128 28.0064 105.945 28.3017 107.485C28.7535 109.849 29.3286 111.793 30.6348 113.342C31.9163 114.906 33.3046 115.64 31.2673 112.551ZM31.5786 95.3198C33.2371 90.4806 34.0102 88.9828 35.1156 86.8686C36.2155 84.7599 36.3063 83.2027 35.5026 84.2268C34.5254 85.4785 32.9384 88.9663 32.3248 90.3149L32.2216 90.5414C32.2216 90.5414 31.0706 93.0112 30.9113 94.7085C30.873 95.3029 31.3887 95.8484 31.5786 95.3198ZM101.129 79.3162C100.588 78.4591 104.861 79.7683 107.609 83.1304C108.029 83.6452 107.3 84.2515 106.83 83.7605C104.325 81.1791 101.595 79.5883 101.18 79.3461C101.163 79.336 101.149 79.3283 101.14 79.3229L101.133 79.3183L101.129 79.3162ZM112.742 90.3255C114.115 92.7751 114.474 97.8912 113.8 99.744C113.646 100.163 112.804 99.3317 112.809 98.7497C113.046 93.8948 111.132 90.1923 110.536 89.0376C110.426 88.8254 110.36 88.6985 110.361 88.6675C110.335 88.5682 110.901 87.8274 111.287 87.9161C111.559 87.9845 111.857 88.5866 112.21 89.299C112.375 89.6315 112.551 89.988 112.742 90.3255ZM115.504 113.994C114.642 113.873 113.983 113.78 113.928 113.45C113.859 113.129 114.56 113 115.694 113.106C116.879 113.237 117.836 113.592 119.1 114.062L119.105 114.063C119.275 114.126 119.451 114.192 119.633 114.259C121.665 115.002 122.612 115.773 122.726 116.698C122.823 117.465 122.417 117.9 121.802 117.863C121.486 117.812 121.486 117.708 121.486 117.507C121.486 117.258 121.486 116.861 120.884 116.233C119.669 115.033 119.062 114.853 117.4 114.36L117.361 114.348C116.731 114.167 116.073 114.074 115.504 113.994ZM110.058 114.108C108.087 114.108 106.985 115.057 106.279 115.665C106.204 115.73 106.132 115.791 106.065 115.847C106.034 115.885 106.003 115.923 105.972 115.96C105.95 115.988 105.927 116.016 105.906 116.043C105.871 116.086 105.836 116.129 105.802 116.17C105.753 116.232 105.706 116.293 105.658 116.35C105.607 116.417 105.556 116.482 105.505 116.543C105.458 116.604 105.412 116.663 105.365 116.719C105.32 116.779 105.275 116.837 105.229 116.892C105.185 116.951 105.141 117.008 105.096 117.062C104.754 117.522 104.414 117.838 104.045 117.469C103.651 117.073 104.505 115.821 105.26 114.931C106.049 114.009 107.364 112.987 109.335 112.723C109.637 112.678 109.908 112.638 110.151 112.606C110.125 112.101 110.43 111.272 110.843 110.149C111.155 109.302 111.528 108.289 111.866 107.122C112.116 106.235 112.332 104.59 112.495 103.353C112.61 102.478 112.698 101.807 112.753 101.752C113.18 101.324 114.232 102.543 114.232 103.234C114.284 105.541 112.55 110.727 111.34 112.528C111.8 112.567 111.995 112.755 112.03 113.185C112.036 113.24 112.043 113.292 112.049 113.341C112.139 114.049 112.147 114.108 110.058 114.108ZM65.6956 33.0341C66.1803 32.9422 66.7508 33.0007 67.6531 33.4236C68.2728 33.7283 68.0081 33.9031 67.0912 33.7096C66.5227 33.5902 66.4762 33.5827 66.3407 33.561C66.2684 33.5494 66.1708 33.5338 65.9553 33.495C64.9175 33.3224 64.7358 33.2085 65.6956 33.0341Z" fill="black"/>
<path d="M61.8871 76.8606C62.0727 76.8813 62.6452 76.7893 63.2684 76.6892C64.1879 76.5414 65.2178 76.3759 65.279 76.5284C65.3255 76.6216 64.9625 76.7897 64.4961 77.0056C63.9413 77.2625 63.2401 77.5871 62.9076 77.9342C62.7036 78.1387 62.1678 78.6247 61.8364 78.5735C61.6894 78.5587 61.5763 78.3748 61.434 78.1432C61.329 77.9724 61.2081 77.7757 61.0459 77.602C60.609 77.1638 60.2471 76.9516 60.0071 76.8109C59.7431 76.656 59.6266 76.5877 59.7201 76.4003C59.8069 76.2403 60.2413 76.3869 60.7452 76.557C61.1261 76.6855 61.5468 76.8275 61.8871 76.8606Z" fill="black"/>
<path d="M58.9906 103.816C59.2412 99.7861 59.4216 96.884 58.5992 96.8428C57.2848 96.7769 56.1347 105.442 56.1352 113.053C56.1352 120.664 57.7786 124.09 58.7311 123.135C59.2673 122.597 59.179 121.516 58.9994 119.317C58.86 117.609 58.6654 115.227 58.6654 111.9C58.6654 109.049 58.8406 106.23 58.9906 103.816Z" fill="black"/>
<path d="M82.2266 77.6596C82.474 76.8034 88.7672 76.6007 90.2956 76.8483C91.8241 77.0963 97.623 84.3303 96.4314 84.8039C95.8674 85.0279 95.1471 84.3022 94.1418 83.2892C93.0239 82.1628 91.5535 80.6812 89.5535 79.7555C87.5029 78.8065 85.4586 78.521 84.0506 78.3244C82.8507 78.1568 82.1128 78.0538 82.2266 77.6596Z" fill="black"/>
<path fill-rule="evenodd" clip-rule="evenodd" d="M128.197 120.137C130.235 123.102 128.131 126.957 129.61 129.33C132.042 133.218 136.938 137.138 138.811 138.226C140.159 139.049 142.064 139.84 141.998 142.245C141.9 144.98 140.552 145.705 139.797 146.463C138.285 147.979 130.662 151.767 125.602 155.227C119.227 159.609 117.025 161.553 114.955 163.628C111.735 166.857 108.679 167.944 103.782 167.944C98.8862 167.944 96.6846 166.923 95.1735 165.572C93.6614 164.254 91.986 160.893 92.1503 155.885C92.2818 150.91 93.8591 146.363 94.6144 138.62C94.9435 135.293 94.9101 131.174 94.9101 127.516C94.9101 122.904 94.9758 118.983 95.9616 118.39C97.7366 117.27 98.1304 117.204 100.233 117.204C102.336 117.204 103.289 117.336 103.98 118.027C104.636 118.686 104.374 120.202 104.143 122.344C103.946 124.486 104.965 125.178 105.984 126.067C107.002 126.924 107.922 128.011 111.143 128.275C114.363 128.505 115.546 127.978 117.058 127.023C118.569 126.067 120.705 124.354 121.494 123.366C122.25 122.41 124.123 119.116 124.484 119.116C124.812 119.116 126.982 118.358 128.197 120.137Z" fill="#C4A000"/>
<path fill-rule="evenodd" clip-rule="evenodd" d="M13.5806 125.211C10.6237 127.353 3.13109 127.155 1.2252 129.659C-0.647829 132.164 1.29138 135.788 1.25806 142.509C1.25806 145.376 0.765159 147.55 0.436557 149.296C-0.0234857 151.504 -0.319227 153.053 0.600858 154.634C2.27673 157.435 4.97081 158.127 20.3827 161.355C28.6306 163.068 36.4185 167.516 41.6432 167.944C46.868 168.34 47.9853 166.594 51.1727 163.76C54.3273 160.926 55.346 161.816 55.2474 155.589C55.1488 149.395 51.1728 147.55 46.6709 140.4C42.1691 133.25 41.4461 131.932 38.4559 127.188C35.4656 122.509 29.5508 114.009 26.1662 113.909C23.4716 113.844 21.96 115.293 20.2841 117.007C18.6082 118.721 16.5381 123.069 13.5806 125.211Z" fill="#C4A000"/>
<path fill-rule="evenodd" clip-rule="evenodd" d="M58.3686 31.1777C57.7775 30.2881 56.5289 29.6291 55.5431 29.6291C54.4915 29.6291 53.7358 30.0575 53.1443 30.98C52.4317 32.0243 52.4734 33.1831 52.5069 34.1125C52.5136 34.2974 52.5199 34.4732 52.5199 34.6372C52.5199 36.2188 53.6043 38.1297 53.9658 38.5251C54.2773 38.8473 54.5052 39.1376 54.7007 39.3867C55.1651 39.9783 55.4469 40.3373 56.2331 40.3373C56.726 40.3373 57.5804 40.1396 57.9747 39.9089C59.2229 39.1841 59.453 36.8448 59.453 34.7361C59.453 33.3193 58.9929 32.0673 58.3686 31.1777ZM57.6302 32.5826C57.2117 31.6646 56.0607 31.455 55.7732 31.9007C55.5097 32.3096 55.795 32.7185 56.3475 33.5101C56.3979 33.5824 56.4506 33.6578 56.5052 33.7367C56.767 34.1355 56.8863 34.5512 56.9839 34.8913C57.13 35.4007 57.2274 35.7403 57.6823 35.5987C57.9698 35.4939 58.0487 33.5005 57.6302 32.5826Z" fill="black"/>
<path fill-rule="evenodd" clip-rule="evenodd" d="M81.7655 34.5382C81.2726 31.7047 79.8267 29.4972 77.3622 29.4972C76.3107 29.4972 75.062 29.6615 74.3724 30.4197C73.4523 31.4411 72.9266 32.7261 72.9266 34.5382C72.9266 36.1527 73.0909 38.4261 73.8138 39.4475C74.4336 40.2955 75.5375 40.2705 76.6064 40.2463C76.7834 40.2422 76.9595 40.2383 77.1322 40.2383C78.4137 40.2383 79.991 39.5134 80.8783 38.3273C81.6669 37.3059 81.9626 35.8232 81.7655 34.5382ZM79.3239 31.7335C78.7219 31.0508 78.1455 30.7881 77.884 31.0508C77.4458 31.4675 77.722 31.7383 78.1613 32.1691C78.2473 32.2534 78.3395 32.3439 78.4339 32.4428C78.5392 32.5646 78.6319 32.7494 78.7246 32.934C78.9313 33.3459 79.1375 33.7569 79.4813 33.4665C80.0048 33.0464 79.9788 32.4689 79.3239 31.7335Z" fill="black"/>
<path fill-rule="evenodd" clip-rule="evenodd" d="M64.9585 36.1294C67.3432 35.8347 70.6105 36.4247 72.1134 37.5385C73.5182 38.5865 74.4989 39.1447 75.7727 39.5694C80.0514 40.9779 85.6897 41.6418 85.4295 45.5059C85.137 50.1232 83.755 52.1785 79.9341 53.3875C76.8658 54.3361 71.3686 59.606 67.1232 59.6293C65.2018 59.644 62.593 59.7364 61.0591 59.1822C59.5918 58.6596 57.528 56.1583 55.1119 54.1627C52.6971 52.1986 50.4293 50.1475 50.4033 47.4059C50.3335 44.5449 52.1887 43.557 54.8636 41.2337C56.2652 39.9936 58.7858 37.8918 60.5516 36.9628C62.1777 36.1378 63.2594 36.3257 64.9585 36.1294Z" fill="#C4A000"/>
<path fill-rule="evenodd" clip-rule="evenodd" d="M67.2632 40.7801C67.5489 41.3722 68.2819 41.4541 68.7712 41.7196C69.2399 41.9854 69.5041 42.0463 69.6881 41.9442C70.0956 41.7196 69.7903 40.9842 69.3827 40.7188C68.9948 40.4533 67.1003 40.3916 67.2632 40.7801Z" fill="white"/>
<path fill-rule="evenodd" clip-rule="evenodd" d="M59.7958 41.7874C59.6995 42.03 60.3777 42.4922 60.7172 42.1764C61.081 41.8607 61.5173 41.5687 61.6629 41.4717C62.3173 41.0338 62.0745 40.7185 60.9842 40.9129C59.8939 41.1074 59.893 41.5445 59.7958 41.7874Z" fill="white"/>
<path fill-rule="evenodd" clip-rule="evenodd" d="M52.2215 49.8968C52.8231 49.9773 53.9463 50.8472 55.2798 51.7455C57.2574 53.2662 60.1609 53.8565 62.2553 53.9956C67.256 54.5786 75.8581 49.9238 77.4805 48.6264C79.3782 47.2399 81.5479 45.4872 82.4128 45.328C82.8208 45.9192 81.7154 46.0011 80.1769 47.2884C78.5038 48.4004 77.6403 49.1042 75.3565 50.3983C72.7459 51.768 68.0191 54.4299 62.3968 54.3805C59.2974 54.0267 57.716 53.6355 56.6609 53.0081C55.1616 52.0787 53.2001 51.0239 52.2215 49.8968Z" fill="white"/>
</svg>
