<svg width="106" height="89" viewBox="0 0 106 89" fill="none" xmlns="http://www.w3.org/2000/svg">
<path d="M70.175 33.1463C70.6627 30.9142 71.0473 28.603 71.303 26.2105L71.477 24.589L70.0418 23.9762C69.2404 23.6347 50.075 15.6677 20.1475 22.2281L20.9811 26.4411C45.0366 21.1675 62.0942 25.7785 67.0338 27.4294C66.7673 29.3923 66.4107 31.2964 65.9745 33.144H70.175V33.1463Z" fill="url(#paint0_linear_1_128)"/>
<path d="M61.9847 44.8082C55.251 59.6817 44.4136 69.1322 40.935 71.9069C26.4901 61.0543 19.2795 44.4849 15.7601 32.341C12.6662 21.6738 11.811 12.4924 11.5833 8.93972C17.8679 6.83885 44.1106 -0.727889 69.4854 9.68599V15.8461H73.5741V6.79136L72.3107 6.24183C56.2007 -0.76181 39.7877 -0.61934 28.8557 0.730732C17.0299 2.19388 9.08019 5.27168 8.74716 5.40058L7.38281 5.93428L7.41719 7.46527C7.42793 7.94017 7.71799 19.2835 11.8153 33.474C17.2684 52.3637 26.9521 67.1805 39.8221 76.3258L40.9608 77.1354L42.1039 76.3303C42.3681 76.1426 48.6699 71.6604 55.4422 63.2524C59.097 58.716 63.2846 52.4858 66.4902 44.8037H61.9847V44.8082Z" fill="url(#paint1_linear_1_128)"/>
<path d="M72.4977 44.8074C68.7312 54.4275 63.45 62.1322 58.6952 67.7586C51.231 76.5895 43.7067 82.0101 40.9995 83.8238C20.8759 69.7464 11.9185 52.9689 7.94573 41.2795C4.55957 31.3202 4.11696 23.2763 4.09547 20.0764L8.58815 18.9072L7.99729 14.6309L0.142087 16.7679L0.041103 18.2831C0.0131715 18.706 -0.597025 28.801 4.02242 42.5143C8.26157 55.0991 17.9194 73.2381 39.8521 88.1793L40.8963 88.8917L41.9771 88.2426C42.3789 88.0007 51.9336 82.1978 61.6559 70.7346C66.9629 64.4773 72.8865 55.773 76.9044 44.8096H72.4977V44.8074Z" fill="url(#paint2_linear_1_128)"/>
<path d="M39.8221 62.8834L41.1499 63.8241L42.3359 62.6934C42.8516 62.2004 50.5478 54.8395 56.5101 44.81H51.5361C47.4538 51.1104 42.8881 56.1194 40.776 58.3085C27.4183 47.5622 22.208 23.3694 20.9489 16.3522C48.2295 9.89585 71.9068 17.9465 77.5533 20.1288C77.4179 24.7172 76.8636 29.0569 75.9977 33.1456H80.1853C81.0855 28.6137 81.6227 23.7923 81.6721 18.6883L81.6871 17.2478L80.4281 16.6847C80.1337 16.5535 73.0885 13.435 61.8622 11.3567C51.5168 9.44356 35.5313 8.11158 18.115 12.6344L16.3145 13.1026L16.5809 15.0338C16.7764 16.454 21.6 49.9774 39.8221 62.8834Z" fill="url(#paint3_linear_1_128)"/>
<path d="M57.4727 33.1455H61.8558C62.5583 30.8931 63.0697 28.5978 63.3189 26.2866C61.9825 25.9384 60.6611 25.468 59.2882 25.3662C59.0347 27.9669 58.3858 30.5833 57.4727 33.1455Z" fill="url(#paint4_linear_1_128)"/>
<path d="M33.4884 42.2082L36.8273 35.4127C37.04 34.9762 37.3923 34.7568 37.8822 34.7568C38.3614 34.7568 38.7073 34.9762 38.92 35.4127L42.2589 42.2082C42.579 42.8369 42.3878 43.1513 41.6831 43.1513H41.668C41.3049 43.1513 41.0492 42.9907 40.901 42.6718L40.1511 41.1363H37.547C37.2376 41.1363 37.0314 41.0572 36.924 40.8966C36.8165 40.7361 36.838 40.519 36.9884 40.2408C37.1367 39.9536 37.3666 39.8089 37.676 39.8089H39.528L37.8822 36.419L34.8463 42.6718C34.698 42.9907 34.4423 43.1513 34.0792 43.1513C33.3659 43.1513 33.1704 42.8369 33.4884 42.2082Z" fill="#79C08D"/>
<path d="M44.4141 36.9009C44.4141 36.4645 44.6375 36.2451 45.0844 36.2451H48.5823C49.2527 36.2451 49.7726 36.4238 50.14 36.7811C50.5074 37.1384 50.6901 37.6359 50.6901 38.2759C50.6901 38.8096 50.5633 39.2551 50.3076 39.6101C50.0519 39.9674 49.6953 40.2094 49.2376 40.3383L50.8663 42.5455C50.9715 42.6834 50.9995 42.8078 50.9457 42.9141C50.892 43.0204 50.776 43.0746 50.5934 43.0746H50.1615C49.9703 43.0746 49.8156 43.0407 49.6974 42.9706C49.5793 42.9005 49.4417 42.7603 49.2827 42.5477L47.7658 40.4695H47.2545C46.8506 40.4695 46.6464 40.2682 46.6464 39.8611C46.6464 39.4563 46.8484 39.2528 47.2545 39.2528H48.4212C48.7091 39.2528 48.9325 39.1759 49.0915 39.0199C49.2505 38.8661 49.3322 38.6332 49.3322 38.3234C49.3322 37.9932 49.2741 37.7671 49.156 37.6427C49.0378 37.5206 48.7929 37.4595 48.4212 37.4595H45.772V42.4799C45.772 42.9276 45.5421 43.1515 45.0844 43.1515C44.6375 43.1515 44.4141 42.9276 44.4141 42.4799V36.9009Z" fill="#79C08D"/>
<path d="M52.9609 42.48V36.9146C52.9609 36.4781 53.1844 36.2588 53.6313 36.2588H54.046C54.2479 36.2588 54.4241 36.3334 54.5724 36.4827L56.953 38.8662L59.3164 36.4827C59.4647 36.3334 59.6473 36.2588 59.86 36.2588H60.6271C60.7753 36.2588 60.8505 36.3334 60.8505 36.4827C60.8505 36.6003 60.8076 36.702 60.7238 36.7857L57.4171 40.1123C57.2688 40.2615 57.1141 40.3361 56.953 40.3361C56.7833 40.3361 56.6286 40.2615 56.4889 40.1123L54.3167 37.9209V42.4777C54.3167 42.9255 54.0868 43.1494 53.6291 43.1494C53.1844 43.1516 52.9609 42.9277 52.9609 42.48ZM59.4926 42.48V39.4904C59.4926 39.2891 59.5678 39.1127 59.7161 38.9635L60.4982 38.1629C60.5948 38.0679 60.6743 38.0182 60.7388 38.0182C60.814 38.0182 60.8505 38.1132 60.8505 38.3054V42.4777C60.8505 42.9255 60.6314 43.1494 60.1952 43.1494H60.163C59.7161 43.1516 59.4926 42.9277 59.4926 42.48Z" fill="#79C08D"/>
<path d="M65.5003 34.8066H70.8997C71.3358 34.8066 71.555 35.0305 71.555 35.4783C71.555 35.926 71.3358 36.1499 70.8997 36.1499H65.5003V41.7311H71.1059C71.5421 41.7311 71.7613 41.955 71.7613 42.4028C71.7613 42.8505 71.5421 43.0744 71.1059 43.0744H65.5003C65.0212 43.0744 64.6538 42.9455 64.3981 42.69C64.1424 42.4344 64.0156 42.0658 64.0156 41.5864V36.2947C64.0156 35.8152 64.1424 35.4466 64.3981 35.1911C64.6538 34.9333 65.0212 34.8066 65.5003 34.8066Z" fill="#79C08D"/>
<path d="M73.7571 36.1816H73.8366C74.1976 36.1816 74.4855 36.3196 74.6982 36.5977L75.9122 38.1966C76.0303 38.3571 76.0303 38.5154 75.9122 38.676L75.5297 39.1871C75.4653 39.2821 75.3922 39.3318 75.3063 39.3318C75.2418 39.3318 75.1688 39.2843 75.0828 39.1871L73.3747 37.0116C73.162 36.7447 73.0868 36.5389 73.1512 36.3965C73.2136 36.2517 73.4155 36.1816 73.7571 36.1816ZM75.8821 40.354C75.8821 40.1618 75.9401 39.9921 76.0583 39.8429L78.5012 36.5977C78.7139 36.3196 78.9911 36.1816 79.3327 36.1816H79.3972C80.089 36.1816 80.2222 36.4598 79.7968 37.0138L77.2421 40.3721V42.482C77.2421 42.9297 77.0079 43.1536 76.5396 43.1536C76.1034 43.1536 75.8842 42.9297 75.8842 42.482V40.354H75.8821Z" fill="#79C08D"/>
<path d="M81.8398 36.9168C81.8398 36.469 82.0633 36.2451 82.5102 36.2451H86.1048C86.7322 36.2451 87.222 36.4079 87.5744 36.7336C87.9268 37.0592 88.1008 37.5206 88.1008 38.1176C88.1008 38.6196 87.9246 39.0606 87.5744 39.445C88.1072 39.8498 88.3737 40.3994 88.3737 41.0914C88.3737 41.72 88.1996 42.2085 87.8537 42.5545C87.5078 42.9005 87.0158 43.0746 86.3755 43.0746H82.5102C82.0633 43.0746 81.8398 42.8508 81.8398 42.403V36.9168ZM86.0876 41.8422C86.4593 41.8422 86.7085 41.7856 86.831 41.6748C86.9535 41.5617 87.0158 41.3265 87.0158 40.9625C87.0158 40.7182 86.9277 40.517 86.7515 40.3632C86.5753 40.2094 86.354 40.1303 86.0876 40.1303H84.6652C84.272 40.1303 84.0744 39.9335 84.0744 39.5378C84.0744 39.1443 84.272 38.9453 84.6652 38.9453H85.9759C86.4872 38.9453 86.7429 38.7101 86.7429 38.242C86.7429 37.9321 86.6913 37.7286 86.5903 37.6269C86.4894 37.5251 86.2831 37.4753 85.9759 37.4753H83.1956V41.8399H86.0876V41.8422Z" fill="#79C08D"/>
<path d="M91.4399 36.2451H96.3107C96.7146 36.2451 96.9166 36.4532 96.9166 36.8693C96.9166 37.2741 96.7146 37.4776 96.3107 37.4776H92.1253V41.8422H96.3752C96.7791 41.8422 96.9811 42.0502 96.9811 42.4663C96.9811 42.8711 96.7791 43.0746 96.3752 43.0746H91.4399C90.993 43.0746 90.7695 42.8508 90.7695 42.403V36.919C90.7695 36.469 90.993 36.2451 91.4399 36.2451ZM93.0212 39.5717C93.0212 39.1669 93.2232 38.9634 93.6271 38.9634H95.4792C95.8724 38.9634 96.0701 39.1669 96.0701 39.5717C96.0701 39.9878 95.8724 40.1958 95.4792 40.1958H93.6271C93.2232 40.1936 93.0212 39.9855 93.0212 39.5717Z" fill="#79C08D"/>
<path d="M98.9797 36.9009C98.9797 36.4645 99.2031 36.2451 99.65 36.2451H103.148C103.818 36.2451 104.338 36.4238 104.706 36.7811C105.073 37.1384 105.256 37.6359 105.256 38.2759C105.256 38.8096 105.129 39.2551 104.873 39.6101C104.618 39.9674 104.261 40.2094 103.803 40.3383L105.432 42.5455C105.537 42.6834 105.565 42.8078 105.511 42.9141C105.458 43.0204 105.342 43.0746 105.159 43.0746H104.727C104.536 43.0746 104.381 43.0407 104.263 42.9706C104.145 42.9005 104.007 42.7603 103.848 42.5477L102.331 40.4695H101.82C101.416 40.4695 101.214 40.2682 101.214 39.8611C101.214 39.4563 101.416 39.2528 101.82 39.2528H102.987C103.275 39.2528 103.498 39.1759 103.657 39.0199C103.816 38.8661 103.898 38.6332 103.898 38.3234C103.898 37.9932 103.84 37.7671 103.722 37.6427C103.603 37.5206 103.359 37.4595 102.987 37.4595H100.335V42.4799C100.335 42.9276 100.106 43.1515 99.6479 43.1515C99.201 43.1515 98.9775 42.9276 98.9775 42.4799V36.9009H98.9797Z" fill="#79C08D"/>
<path d="M79.1881 45.1621H80.5589C80.7158 45.1621 80.7931 45.3091 80.7931 45.6053C80.7931 45.8993 80.7158 46.0486 80.5589 46.0486H79.2225C79.1108 46.0486 79.0249 46.1051 78.9647 46.2182C78.9024 46.3313 78.8723 46.4964 78.8723 46.7134C78.8723 46.917 78.9002 47.0775 78.9582 47.1929C79.0163 47.3082 79.1043 47.367 79.2225 47.367H80.17C80.4257 47.367 80.6341 47.5117 80.7931 47.7989C80.9521 48.0884 81.0316 48.4728 81.0316 48.959C81.0316 49.1988 81.0101 49.4204 80.9672 49.6239C80.9242 49.8274 80.864 50.0038 80.7888 50.1508C80.7136 50.2978 80.6212 50.4131 80.516 50.4946C80.4107 50.576 80.2947 50.6167 80.1679 50.6167H78.6811C78.5285 50.6167 78.4533 50.4697 78.4533 50.1734C78.4533 49.8794 78.5285 49.7302 78.6811 49.7302H80.1464C80.2646 49.7302 80.3591 49.6601 80.4257 49.5199C80.4923 49.3797 80.5267 49.192 80.5267 48.9613C80.5267 48.4909 80.3999 48.2535 80.1486 48.2535H79.1903C79.0678 48.2535 78.9561 48.2173 78.8551 48.1427C78.7541 48.068 78.6682 47.964 78.5973 47.8261C78.5242 47.6881 78.4684 47.5253 78.4275 47.3353C78.3867 47.1454 78.3652 46.9373 78.3652 46.7134C78.3652 46.4896 78.3846 46.2815 78.4275 46.0916C78.4684 45.9016 78.5242 45.7388 78.5973 45.6008C78.6703 45.4629 78.7563 45.3566 78.8551 45.2797C78.9539 45.2006 79.0657 45.1621 79.1881 45.1621Z" fill="#79C08D"/>
<path d="M82.0283 50.1189V45.6593C82.0283 45.3291 82.1164 45.1641 82.2904 45.1641H84.3187C84.4756 45.1641 84.5529 45.3111 84.5529 45.6073C84.5529 45.9013 84.4756 46.0505 84.3187 46.0505H82.5483V49.7299H84.3423C84.4992 49.7299 84.5765 49.8769 84.5765 50.1731C84.5765 50.4694 84.4992 50.6164 84.3423 50.6164H82.2926C82.1164 50.6141 82.0283 50.449 82.0283 50.1189ZM83.1091 47.4074H84.0179C84.1662 47.4074 84.2414 47.5476 84.2414 47.8303C84.2414 48.1198 84.1662 48.2622 84.0179 48.2622H83.1091C82.9608 48.2622 82.8856 48.1175 82.8856 47.8303C82.8856 47.5499 82.9608 47.4074 83.1091 47.4074Z" fill="#79C08D"/>
<path d="M86.051 45.1621H87.9332C88.0857 45.1621 88.1609 45.3091 88.1609 45.6053C88.1609 45.8993 88.0857 46.0486 87.9332 46.0486H86.051V49.7279H88.0062C88.1588 49.7279 88.234 49.8749 88.234 50.1712C88.234 50.4674 88.1588 50.6144 88.0062 50.6144H86.051C85.8834 50.6144 85.7567 50.5307 85.6664 50.3611C85.5783 50.1915 85.5332 49.9496 85.5332 49.633V46.1413C85.5332 45.8247 85.5783 45.5827 85.6664 45.4131C85.7545 45.2458 85.8834 45.1621 86.051 45.1621Z" fill="#79C08D"/>
<path d="M89.293 49.6325V45.5823C89.293 45.2657 89.3811 45.1074 89.5594 45.1074C89.727 45.1074 89.8108 45.2657 89.8108 45.5823V49.7275H91.549V45.5823C91.549 45.2657 91.6371 45.1074 91.8154 45.1074C91.983 45.1074 92.0668 45.2657 92.0668 45.5823V49.6325C92.0668 49.9491 92.0217 50.1911 91.9336 50.3607C91.8455 50.5303 91.7166 50.614 91.549 50.614H89.8108C89.6432 50.614 89.5164 50.5303 89.4262 50.3607C89.3359 50.1911 89.293 49.9491 89.293 49.6325Z" fill="#79C08D"/>
<path d="M93.3408 45.6574C93.3408 45.3272 93.4289 45.1621 93.6029 45.1621H95.107C95.4078 45.1621 95.6355 45.3091 95.7923 45.6008C95.9492 45.8926 96.0265 46.3154 96.0265 46.8717C96.0265 47.2856 95.9707 47.6339 95.859 47.9097C95.7472 48.1879 95.5925 48.3869 95.3906 48.5068L96.0201 50.0671C96.1791 50.4674 96.1232 50.6687 95.8482 50.6687C95.7064 50.6687 95.5968 50.5669 95.5195 50.3634L94.8298 48.6017H94.4173C94.269 48.6017 94.1938 48.4502 94.1938 48.1495C94.1938 47.8623 94.269 47.7175 94.4173 47.7175H95.0532C95.195 47.7175 95.3068 47.6429 95.3884 47.4914C95.4701 47.3399 95.5109 47.1318 95.5109 46.8627C95.5109 46.5597 95.4787 46.3494 95.4142 46.2295C95.3497 46.1096 95.2294 46.0508 95.0554 46.0508H93.8629V50.1847C93.8629 50.5081 93.7748 50.6709 93.6008 50.6709C93.4289 50.6709 93.3451 50.5081 93.3451 50.1847V45.6574H93.3408Z" fill="#79C08D"/>
<path d="M97.1738 50.1915V45.594C97.1738 45.2774 97.2642 45.1191 97.4408 45.1191C97.6087 45.1191 97.6927 45.2774 97.6927 45.594V50.1915C97.6927 50.5081 97.6087 50.6664 97.4408 50.6664H97.4236C97.2578 50.6664 97.1738 50.5081 97.1738 50.1915Z" fill="#79C08D"/>
<path d="M98.3662 45.6053C98.3662 45.3091 98.4436 45.1621 98.6004 45.1621H100.968C101.121 45.1621 101.196 45.3091 101.196 45.6053C101.196 45.8993 101.121 46.0486 100.968 46.0486H98.6004C98.4436 46.0486 98.3662 45.8993 98.3662 45.6053ZM99.5179 50.1825V47.0911C99.5179 46.7745 99.6016 46.6162 99.7692 46.6162H99.7864C99.954 46.6162 100.038 46.7745 100.038 47.0911V50.1802C100.038 50.5036 99.9497 50.6664 99.7714 50.6664C99.6016 50.6664 99.5179 50.5059 99.5179 50.1825Z" fill="#79C08D"/>
<path d="M101.564 45.1729H101.749C101.893 45.1729 102.015 45.2814 102.112 45.5008L102.584 46.6292C102.677 46.8554 102.679 47.0724 102.591 47.2828L102.546 47.389C102.501 47.4953 102.458 47.5474 102.413 47.5474C102.367 47.5474 102.324 47.4976 102.284 47.4004L101.482 45.503C101.388 45.2814 101.413 45.1729 101.564 45.1729ZM102.632 50.191V48.4519C102.632 48.262 102.664 48.0901 102.726 47.9363L103.702 45.5098C103.788 45.2859 103.906 45.1729 104.058 45.1729H104.226C104.37 45.1729 104.4 45.2859 104.314 45.5098L103.15 48.3999V50.1932C103.15 50.5098 103.061 50.6681 102.887 50.6681C102.718 50.6659 102.632 50.5076 102.632 50.191Z" fill="#79C08D"/>
<defs>
<linearGradient id="paint0_linear_1_128" x1="7.38247" y1="26.3953" x2="73.5745" y2="26.3953" gradientUnits="userSpaceOnUse">
<stop stop-color="#009640"/>
<stop offset="0.0888" stop-color="#009144"/>
<stop offset="0.2441" stop-color="#00824C"/>
<stop offset="0.4475" stop-color="#006B56"/>
<stop offset="0.6914" stop-color="#004850"/>
<stop offset="0.9667" stop-color="#001428"/>
<stop offset="1" stop-color="#000A19"/>
</linearGradient>
<linearGradient id="paint1_linear_1_128" x1="7.38253" y1="38.5697" x2="73.5746" y2="38.5697" gradientUnits="userSpaceOnUse">
<stop stop-color="#009640"/>
<stop offset="0.0888" stop-color="#009144"/>
<stop offset="0.2441" stop-color="#00824C"/>
<stop offset="0.4475" stop-color="#006B56"/>
<stop offset="0.6914" stop-color="#004850"/>
<stop offset="0.9667" stop-color="#001428"/>
<stop offset="1" stop-color="#000A19"/>
</linearGradient>
<linearGradient id="paint2_linear_1_128" x1="-0.000901636" y1="51.7597" x2="81.6846" y2="51.7597" gradientUnits="userSpaceOnUse">
<stop stop-color="#009640"/>
<stop offset="0.0888" stop-color="#009144"/>
<stop offset="0.2441" stop-color="#00824C"/>
<stop offset="0.4475" stop-color="#006B56"/>
<stop offset="0.6914" stop-color="#004850"/>
<stop offset="0.9667" stop-color="#001428"/>
<stop offset="1" stop-color="#000A19"/>
</linearGradient>
<linearGradient id="paint3_linear_1_128" x1="-0.000892853" y1="36.7027" x2="81.6846" y2="36.7027" gradientUnits="userSpaceOnUse">
<stop stop-color="#009640"/>
<stop offset="0.0888" stop-color="#009144"/>
<stop offset="0.2441" stop-color="#00824C"/>
<stop offset="0.4475" stop-color="#006B56"/>
<stop offset="0.6914" stop-color="#004850"/>
<stop offset="0.9667" stop-color="#001428"/>
<stop offset="1" stop-color="#000A19"/>
</linearGradient>
<linearGradient id="paint4_linear_1_128" x1="-0.000865931" y1="29.2558" x2="81.6846" y2="29.2558" gradientUnits="userSpaceOnUse">
<stop stop-color="#009640"/>
<stop offset="0.0888" stop-color="#009144"/>
<stop offset="0.2441" stop-color="#00824C"/>
<stop offset="0.4475" stop-color="#006B56"/>
<stop offset="0.6914" stop-color="#004850"/>
<stop offset="0.9667" stop-color="#001428"/>
<stop offset="1" stop-color="#000A19"/>
</linearGradient>
</defs>
</svg>
