<svg width="111" height="31" viewBox="0 0 111 31" fill="none" xmlns="http://www.w3.org/2000/svg">
<g filter="url(#filter0_f_17_1979)">
<path d="M4.00098 26.6295L8.03984 26.6295L8.03984 16.6181C8.03984 14.6436 9.4023 13.209 11.3487 13.209C13.2302 13.209 14.3981 14.3351 14.3981 16.1553L14.3981 26.6292L18.3233 26.6292L18.3233 16.5254C18.3233 14.5663 19.6534 13.2088 21.5998 13.2088C23.5786 13.2088 24.6816 14.3503 24.6816 16.3557L24.6816 26.6293L28.7204 26.6293L28.7204 15.4151C28.7204 12.1448 26.4982 9.96982 23.1081 9.96982C20.6264 9.96982 18.5829 11.2347 17.7553 13.2555L17.658 13.2555C17.0255 11.1576 15.2899 9.96982 12.8571 9.96982C10.5214 9.96982 8.7048 11.2193 7.95863 13.1167L7.87753 13.1167L7.87753 10.2784L4.00098 10.2784L4.00098 26.6295ZM37.5609 23.9918C35.8091 23.9918 34.6413 23.1434 34.6413 21.8013C34.6413 20.5056 35.7605 19.6726 37.7069 19.5492L41.6808 19.3178L41.6808 20.5673C41.6808 22.5418 39.8479 23.9918 37.5609 23.9918ZM36.3444 26.8918C38.5503 26.8918 40.7076 25.7966 41.6971 24.0226L41.7782 24.0226L41.7782 26.6296L45.671 26.6296L45.671 15.3687C45.671 12.083 42.8974 9.93886 38.6316 9.93886C34.2522 9.93886 31.5112 12.1293 31.3327 15.1835L35.0795 15.1835C35.339 13.826 36.5555 12.9468 38.4695 12.9468C40.4645 12.9468 41.681 13.934 41.681 15.6462L41.681 16.8186L37.1392 17.0654C32.9545 17.3122 30.6026 19.0553 30.6026 21.9554C30.6026 24.9017 33.0194 26.8918 36.3445 26.8918L36.3444 26.8918ZM63.4 16.1091C63.1243 12.6692 60.3182 9.93886 55.7768 9.93886C50.7811 9.93886 47.5369 13.2245 47.5369 18.4536C47.5369 23.7603 50.7809 26.953 55.8092 26.953C60.1239 26.953 63.0919 24.5466 63.4162 20.8905L59.6045 20.8905C59.2315 22.7416 57.9014 23.8523 55.8577 23.8523C53.295 23.8523 51.6406 21.8778 51.6406 18.4532C51.6406 15.0905 53.2788 13.0542 55.8253 13.0542C57.9826 13.0542 59.2639 14.3654 59.5884 16.1085L63.4001 16.1085L63.4 16.1091ZM75.874 4C69.0455 4 64.7632 8.42719 64.7632 15.5077C64.7632 22.5882 69.0451 27 75.874 27C82.6863 27 86.9686 22.5882 86.9686 15.5077C86.9686 8.42719 82.6867 4 75.874 4ZM75.874 7.39367C80.0425 7.39367 82.7025 10.5405 82.7025 15.5076C82.7025 20.4592 80.0424 23.6062 75.874 23.6062C71.6893 23.6062 69.0455 20.4593 69.0455 15.5076C69.0455 10.5406 71.6894 7.39367 75.874 7.39367ZM88.6723 20.3668C88.8507 24.4702 92.3866 26.9999 97.7716 26.9999C103.432 26.9999 107.001 24.3467 107.001 20.12C107.001 16.8035 104.99 14.937 100.237 13.9035L97.5447 13.3174C94.6738 12.6695 93.4898 11.8057 93.4898 10.3248C93.4898 8.47371 95.274 7.23966 97.9178 7.23966C100.594 7.23966 102.427 8.48915 102.622 10.5716L106.612 10.5716C106.514 6.65347 103.108 4.00012 97.9503 4.00012C92.8571 4.00012 89.24 6.66876 89.24 10.6178C89.24 13.7955 91.2838 15.77 95.5981 16.7111L98.6312 17.3898C101.583 18.0531 102.784 18.9787 102.784 20.5829C102.784 22.434 100.821 23.7606 97.9988 23.7606C95.1441 23.7606 92.987 22.4186 92.7274 20.367L88.6725 20.367L88.6723 20.3668Z" fill="white"/>
</g>
<defs>
<filter id="filter0_f_17_1979" x="0.000976562" y="0" width="111" height="31" filterUnits="userSpaceOnUse" color-interpolation-filters="sRGB">
<feFlood flood-opacity="0" result="BackgroundImageFix"/>
<feBlend mode="normal" in="SourceGraphic" in2="BackgroundImageFix" result="shape"/>
<feGaussianBlur stdDeviation="2" result="effect1_foregroundBlur_17_1979"/>
</filter>
</defs>
</svg>
