<svg width="116" height="74" viewBox="0 0 116 74" fill="none" xmlns="http://www.w3.org/2000/svg">
<g filter="url(#filter0_f_17_2354)">
<path fill-rule="evenodd" clip-rule="evenodd" d="M76.3335 4.07309C76.5044 3.97564 76.7485 3.97564 76.9438 4.07309L83.1201 7.50831C83.5107 7.72757 83.7549 8.14175 83.7549 8.60465L83.7549 38.3034C83.7549 38.742 83.5107 39.1561 83.1201 39.3754L72.7693 45.3444C72.3787 45.5637 71.9149 45.5637 71.5243 45.3444L61.1735 39.3754C60.7829 39.1561 60.5388 38.742 60.5388 38.3034L60.5388 26.3898C60.5388 25.9513 60.7829 25.5371 61.1735 25.3178L71.5243 19.3488C71.9149 19.1296 72.3787 19.1296 72.7693 19.3488L75.357 20.835C75.5035 20.9081 75.65 20.9081 75.7964 20.835C75.9429 20.7375 76.0162 20.5914 76.0162 20.4452L76.0162 4.60908C76.0162 4.38981 76.1382 4.19491 76.3335 4.07309ZM72.3054 36.6955L75.8452 34.6489C75.9428 34.6002 75.9917 34.5028 75.9917 34.3809L75.9917 30.2879C75.9917 30.1905 75.9428 30.0687 75.8452 30.0199L72.3054 27.9734C72.2078 27.9247 72.0857 27.9247 71.988 27.9734L68.4483 30.0199C68.3506 30.0687 68.3018 30.1661 68.3018 30.2879L68.3018 34.3809C68.3018 34.4784 68.3506 34.6002 68.4483 34.6489L71.988 36.6955C72.0857 36.7442 72.2078 36.7442 72.3054 36.6955Z" fill="white"/>
<path d="M27.1917 26.0731C27.1917 25.6346 26.9476 25.2204 26.557 25.0011L16.2062 19.0565C16.0353 18.959 15.84 18.9103 15.6447 18.8859L15.547 18.8859C15.3517 18.8859 15.1564 18.959 14.9855 19.0565L4.63472 25.0011C4.24412 25.2204 4 25.6346 4 26.0731L4.02441 42.0554C4.02441 42.2746 4.14647 42.4939 4.34177 42.5914C4.53707 42.7132 4.78119 42.7132 4.95208 42.5914L11.104 39.0831C11.4946 38.8638 11.7387 38.4496 11.7387 38.0111L11.7387 30.5316C11.7387 30.093 11.9828 29.6789 12.3734 29.4596L14.9855 27.9491C15.1808 27.8272 15.4005 27.7785 15.6203 27.7785C15.84 27.7785 16.0597 27.8272 16.2306 27.9491L18.8427 29.4596C19.2333 29.6789 19.4774 30.093 19.4774 30.5316L19.4774 38.0111C19.4774 38.4496 19.7215 38.8638 20.1121 39.0831L26.264 42.5914C26.4593 42.7132 26.7034 42.7132 26.8987 42.5914C27.094 42.4939 27.2161 42.2746 27.2161 42.0554L27.1917 26.0731Z" fill="white"/>
<path d="M57.414 70C57.0478 70 56.7061 69.9025 56.3887 69.732L53.1419 67.8073C52.6536 67.5393 52.8977 67.4419 53.0442 67.3931C53.7033 67.1739 53.8254 67.1251 54.5089 66.7353C54.5822 66.6866 54.6798 66.711 54.7531 66.7597L57.2431 68.2458C57.3408 68.2946 57.4628 68.2946 57.5361 68.2458L67.2766 62.6179C67.3742 62.5692 67.4231 62.4718 67.4231 62.3499L67.4231 51.1185C67.4231 50.9967 67.3742 50.8992 67.2766 50.8505L57.5361 45.2469C57.4384 45.1982 57.3164 45.1982 57.2431 45.2469L47.5026 50.8505C47.405 50.8992 47.3561 51.021 47.3561 51.1185L47.3561 62.3499C47.3561 62.4474 47.405 62.5692 47.5026 62.6179L50.1636 64.1528C51.6039 64.8837 52.5071 64.031 52.5071 63.1783L52.5071 52.093C52.5071 51.9468 52.6292 51.8007 52.8001 51.8007L54.0451 51.8007C54.1916 51.8007 54.3381 51.9225 54.3381 52.093L54.3381 63.1783C54.3381 65.103 53.2883 66.2237 51.4574 66.2237C50.8959 66.2237 50.4565 66.2237 49.2115 65.6146L46.6482 64.1528C46.0135 63.7874 45.6229 63.1052 45.6229 62.3743L45.6229 51.1429C45.6229 50.412 46.0135 49.7298 46.6482 49.3643L56.3887 43.7364C56.999 43.3953 57.829 43.3953 58.4393 43.7364L68.1798 49.3643C68.8146 49.7298 69.2052 50.412 69.2052 51.1429L69.2052 62.3743C69.2052 63.1052 68.8146 63.7874 68.1798 64.1528L58.4393 69.7807C58.122 69.9269 57.7558 70 57.414 70Z" fill="white"/>
<path d="M60.4167 62.2769C56.1446 62.2769 55.2657 60.3278 55.2657 58.6711C55.2657 58.5249 55.3878 58.3787 55.5587 58.3787L56.8281 58.3787C56.9746 58.3787 57.0967 58.4762 57.0967 58.6224C57.292 59.9136 57.8534 60.5471 60.4411 60.5471C62.4918 60.5471 63.3706 60.0842 63.3706 58.9878C63.3706 58.3544 63.1265 57.8915 59.9285 57.5747C57.2675 57.3068 55.6075 56.722 55.6075 54.6024C55.6075 52.629 57.2675 51.4596 60.0505 51.4596C63.1753 51.4596 64.7133 52.5316 64.9086 54.8704C64.9086 54.9435 64.8842 55.0166 64.8354 55.0897C64.7865 55.1384 64.7133 55.1871 64.6401 55.1871L63.3706 55.1871C63.2486 55.1871 63.1265 55.0897 63.1021 54.9679C62.8091 53.6279 62.0523 53.1894 60.0505 53.1894C57.8046 53.1894 57.5361 53.969 57.5361 54.5537C57.5361 55.2602 57.8534 55.4795 60.8806 55.8693C63.8833 56.2591 65.2992 56.8195 65.2992 58.9147C65.2748 61.0587 63.5171 62.2769 60.4167 62.2769Z" fill="white"/>
<path d="M105.238 33.7719L111.39 30.1905C111.78 29.9712 112 29.557 112 29.1185L112 26.2193C112 25.7807 111.756 25.3666 111.39 25.1473L101.112 19.2027C100.722 18.9834 100.258 18.9834 99.8671 19.2027L89.5163 25.1717C89.1257 25.3909 88.8815 25.8051 88.8815 26.2436L88.8815 38.1573C88.8815 38.5958 89.1257 39.01 89.5163 39.2292L99.7939 45.0764C100.184 45.2957 100.648 45.2957 101.014 45.0764L107.24 41.6168C107.435 41.5194 107.557 41.3001 107.557 41.0808C107.557 40.8616 107.435 40.6423 107.24 40.5449L96.84 34.5759C96.6447 34.454 96.5226 34.2591 96.5226 34.0399L96.5226 30.3123C96.5226 30.093 96.6447 29.8738 96.84 29.7763L100.087 27.9247C100.282 27.8029 100.526 27.8029 100.722 27.9247L103.968 29.7763C104.164 29.8981 104.286 30.093 104.286 30.3123L104.286 33.2359C104.286 33.4552 104.408 33.6744 104.603 33.7719C104.798 33.8937 105.042 33.8937 105.238 33.7719Z" fill="white"/>
<path d="M100.575 29.6301C100.502 29.5814 100.404 29.5814 100.331 29.6301L98.3535 30.7752C98.2803 30.8239 98.2314 30.897 98.2314 30.9945L98.2314 33.2846C98.2314 33.3821 98.2803 33.4551 98.3535 33.5039L100.331 34.6489C100.404 34.6977 100.502 34.6977 100.575 34.6489L102.552 33.5039C102.626 33.4551 102.674 33.3821 102.674 33.2846L102.674 30.9945C102.674 30.897 102.626 30.8239 102.552 30.7752L100.575 29.6301Z" fill="white"/>
<path d="M44.1512 19.1173C44.2712 19.1441 44.3886 19.1888 44.5 19.2514L49.6023 22.1905L54.8021 25.1716C54.9096 25.232 55.0078 25.307 55.0938 25.3933L55.0951 25.3909C55.1972 25.4929 55.2836 25.6159 55.3467 25.7502C55.4202 25.9041 55.4613 26.072 55.4613 26.2436L55.4613 38.1085L55.4612 38.1157C55.4607 38.2076 55.4494 38.2984 55.4283 38.3865L55.4367 38.4009C55.4329 38.4132 55.4289 38.4255 55.4248 38.4378L55.6809 38.8638L55.6809 39.01L44.2559 45.6124L44.0775 45.2785C43.7984 45.329 43.5085 45.2726 43.2551 45.1251L32.9287 39.2049C32.8067 39.1318 32.6846 39.0343 32.587 38.9125L32.5936 38.9011C32.5318 38.8311 32.4765 38.755 32.4298 38.6743C32.3284 38.5029 32.2695 38.3116 32.2695 38.1085L32.2695 26.2436C32.2695 25.8599 32.4751 25.4948 32.7882 25.2627C32.8329 25.2295 32.8798 25.1991 32.9286 25.1716L43.2306 19.2514C43.4273 19.1264 43.6502 19.08 43.8705 19.0832C43.9693 19.0818 44.0662 19.0899 44.1583 19.1052L44.1512 19.1173Z" fill="white"/>
<path d="M42.7669 17.1561L42.9133 17.0831L42.9622 17.1561L42.7669 17.1561Z" fill="white"/>
<path d="M55.7052 38.8638L55.7785 38.9856L55.7052 39.0343L55.7052 38.8638Z" fill="white"/>
</g>
<defs>
<filter id="filter0_f_17_2354" x="0" y="0" width="116" height="74" filterUnits="userSpaceOnUse" color-interpolation-filters="sRGB">
<feFlood flood-opacity="0" result="BackgroundImageFix"/>
<feBlend mode="normal" in="SourceGraphic" in2="BackgroundImageFix" result="shape"/>
<feGaussianBlur stdDeviation="2" result="effect1_foregroundBlur_17_2354"/>
</filter>
</defs>
</svg>
