<svg width="251" height="153" viewBox="0 0 251 153" fill="none" xmlns="http://www.w3.org/2000/svg">
<path fill-rule="evenodd" clip-rule="evenodd" d="M168.108 0.169435C168.506 -0.0564789 169.073 -0.0564789 169.527 0.169435L183.881 8.13289C184.789 8.6412 185.356 9.60133 185.356 10.6744L185.356 79.5216C185.356 80.5382 184.789 81.4983 183.881 82.0067L159.825 95.8439C158.917 96.3522 157.839 96.3522 156.931 95.8439L132.875 82.0067C131.968 81.4983 131.4 80.5382 131.4 79.5216L131.4 51.9037C131.4 50.887 131.968 49.9269 132.875 49.4186L156.931 35.5814C157.839 35.0731 158.917 35.0731 159.825 35.5814L165.839 39.0266C166.179 39.196 166.52 39.196 166.86 39.0266C167.201 38.8007 167.371 38.4618 167.371 38.1229L167.371 1.41196C167.371 0.903654 167.655 0.451827 168.108 0.169435ZM158.747 75.794L166.974 71.0498C167.2 70.9369 167.314 70.711 167.314 70.4286L167.314 60.9402C167.314 60.7143 167.2 60.4319 166.974 60.3189L158.747 55.5748C158.52 55.4618 158.236 55.4618 158.009 55.5748L149.783 60.3189C149.556 60.4319 149.442 60.6578 149.442 60.9402L149.442 70.4286C149.442 70.6545 149.556 70.9369 149.783 71.0498L158.009 75.794C158.236 75.907 158.52 75.907 158.747 75.794Z" fill="white"/>
<path d="M53.8992 51.1694C53.8992 50.1528 53.3318 49.1927 52.4241 48.6844L28.368 34.9037C27.9708 34.6778 27.517 34.5648 27.0631 34.5083L26.8361 34.5083C26.3822 34.5083 25.9284 34.6778 25.5312 34.9037L1.47514 48.6844C0.56736 49.1927 1.49178e-07 50.1528 1.52202e-07 51.1694L0.0567363 88.2193C0.0567363 88.7276 0.340416 89.2359 0.794304 89.4618C1.24819 89.7442 1.81555 89.7442 2.2127 89.4618L16.5102 81.3289C17.418 80.8206 17.9853 79.8605 17.9853 78.8439L17.9853 61.505C17.9853 60.4884 18.5527 59.5283 19.4604 59.0199L25.5312 55.5183C25.9851 55.2359 26.4957 55.1229 27.0063 55.1229C27.517 55.1229 28.0276 55.2359 28.4247 55.5183L34.4955 59.0199C35.4033 59.5283 35.9706 60.4884 35.9706 61.505L35.9706 78.8439C35.9706 79.8605 36.538 80.8206 37.4458 81.3289L51.7432 89.4618C52.1971 89.7442 52.7645 89.7442 53.2184 89.4618C53.6723 89.2359 53.9559 88.7276 53.9559 88.2193L53.8992 51.1694Z" fill="white"/>
<path d="M124.138 153C123.287 153 122.493 152.774 121.755 152.379L114.209 147.917C113.075 147.296 113.642 147.07 113.982 146.957C115.514 146.449 115.798 146.336 117.387 145.432C117.557 145.319 117.784 145.375 117.954 145.488L123.741 148.934C123.968 149.047 124.252 149.047 124.422 148.934L147.059 135.887C147.286 135.774 147.4 135.548 147.4 135.266L147.4 109.229C147.4 108.947 147.286 108.721 147.059 108.608L124.422 95.6179C124.195 95.505 123.911 95.505 123.741 95.6179L101.103 108.608C100.876 108.721 100.763 109.003 100.763 109.229L100.763 135.266C100.763 135.492 100.876 135.774 101.103 135.887L107.288 139.445C110.635 141.14 112.734 139.163 112.734 137.186L112.734 111.488C112.734 111.15 113.018 110.811 113.415 110.811L116.309 110.811C116.649 110.811 116.989 111.093 116.989 111.488L116.989 137.186C116.989 141.648 114.55 144.246 110.295 144.246C108.99 144.246 107.968 144.246 105.075 142.834L99.1175 139.445C97.6424 138.598 96.7346 137.017 96.7346 135.322L96.7346 109.286C96.7346 107.591 97.6424 106.01 99.1175 105.163L121.755 92.1163C123.174 91.3256 125.103 91.3256 126.521 92.1163L149.159 105.163C150.634 106.01 151.542 107.591 151.542 109.286L151.542 135.322C151.542 137.017 150.634 138.598 149.159 139.445L126.521 152.492C125.783 152.831 124.932 153 124.138 153Z" fill="white"/>
<path d="M131.117 135.096C121.188 135.096 119.145 130.578 119.145 126.738C119.145 126.399 119.429 126.06 119.826 126.06L122.776 126.06C123.117 126.06 123.401 126.286 123.401 126.625C123.854 129.618 125.159 131.086 131.173 131.086C135.939 131.086 137.982 130.013 137.982 127.472C137.982 126.003 137.414 124.93 129.982 124.196C123.798 123.575 119.94 122.219 119.94 117.306C119.94 112.731 123.798 110.02 130.266 110.02C137.528 110.02 141.102 112.505 141.556 117.927C141.556 118.096 141.499 118.266 141.386 118.435C141.272 118.548 141.102 118.661 140.932 118.661L137.982 118.661C137.698 118.661 137.414 118.435 137.358 118.153C136.677 115.047 134.918 114.03 130.266 114.03C125.046 114.03 124.422 115.837 124.422 117.193C124.422 118.831 125.159 119.339 132.195 120.243C139.173 121.146 142.464 122.445 142.464 127.302C142.407 132.272 138.322 135.096 131.117 135.096Z" fill="white"/>
<path d="M235.284 69.0166L249.582 60.7143C250.489 60.206 251 59.2459 251 58.2293L251 51.5083C251 50.4917 250.433 49.5316 249.582 49.0233L225.696 35.2425C224.788 34.7342 223.71 34.7342 222.802 35.2425L198.746 49.0797C197.838 49.5881 197.271 50.5482 197.271 51.5648L197.271 79.1827C197.271 80.1994 197.838 81.1595 198.746 81.6678L222.632 95.2226C223.54 95.7309 224.618 95.7309 225.469 95.2226L239.936 87.2027C240.39 86.9768 240.674 86.4685 240.674 85.9602C240.674 85.4518 240.39 84.9435 239.936 84.7176L215.767 70.8804C215.313 70.598 215.029 70.1462 215.029 69.6379L215.029 60.9967C215.029 60.4884 215.313 59.9801 215.767 59.7542L223.313 55.4618C223.767 55.1794 224.334 55.1794 224.788 55.4618L232.334 59.7542C232.788 60.0366 233.071 60.4884 233.071 60.9967L233.071 67.7741C233.071 68.2824 233.355 68.7907 233.809 69.0166C234.263 69.299 234.83 69.299 235.284 69.0166Z" fill="white"/>
<path d="M224.447 59.4153C224.277 59.3023 224.05 59.3023 223.88 59.4153L219.285 62.0698C219.114 62.1827 219.001 62.3521 219.001 62.5781L219.001 67.887C219.001 68.1129 219.114 68.2824 219.285 68.3953L223.88 71.0498C224.05 71.1628 224.277 71.1628 224.447 71.0498L229.043 68.3953C229.213 68.2824 229.327 68.1129 229.327 67.887L229.327 62.5781C229.327 62.3521 229.213 62.1827 229.043 62.0698L224.447 59.4153Z" fill="white"/>
<path d="M93.3144 35.0446C93.5932 35.1068 93.866 35.2105 94.1249 35.3555L105.983 42.169L118.068 49.0797C118.318 49.2196 118.546 49.3936 118.746 49.5936L118.749 49.5881C118.986 49.8244 119.187 50.1096 119.334 50.421C119.504 50.7778 119.6 51.167 119.6 51.5648L119.6 79.0698L119.6 79.0864C119.598 79.2995 119.572 79.51 119.523 79.7143L119.543 79.7475C119.534 79.7761 119.525 79.8047 119.515 79.8331L120.11 80.8206L120.11 81.1595L93.5577 96.4651L93.143 95.6911C92.4945 95.8082 91.8207 95.6775 91.2318 95.3356L67.2325 81.6113C66.9488 81.4419 66.6651 81.216 66.4382 80.9336L66.4537 80.907C66.3099 80.7449 66.1814 80.5684 66.073 80.3814C65.8373 79.984 65.7004 79.5405 65.7004 79.0698L65.7004 51.5648C65.7004 50.6752 66.1782 49.8289 66.9058 49.2908C67.0098 49.2139 67.1188 49.1433 67.2323 49.0797L91.1748 35.3555C91.632 35.0659 92.15 34.9581 92.6621 34.9656C92.8915 34.9623 93.1168 34.9811 93.3308 35.0166L93.3144 35.0446Z" fill="white"/>
<path d="M90.0971 30.4983L90.4375 30.3289L90.551 30.4983L90.0971 30.4983Z" fill="white"/>
<path d="M120.167 80.8206L120.337 81.103L120.167 81.2159L120.167 80.8206Z" fill="white"/>
</svg>
