<svg width="28" height="28" viewBox="0 0 28 28" fill="none" xmlns="http://www.w3.org/2000/svg">
<g clip-path="url(#clip0_320_7)">
<path d="M12.5508 25.7168C12.4596 26.0632 12.3913 26.4141 12.3457 26.7695C12.3001 27.125 12.2682 27.4896 12.25 27.8633C11.0833 27.7266 9.97135 27.4531 8.91406 27.043C7.85677 26.6328 6.87695 26.1087 5.97461 25.4707C5.07227 24.8327 4.25195 24.0944 3.51367 23.2559C2.77539 22.4173 2.14648 21.5059 1.62695 20.5215C1.10742 19.5371 0.70638 18.498 0.423828 17.4043C0.141276 16.3105 0 15.1758 0 14C0 12.7148 0.164062 11.4753 0.492188 10.2812C0.820312 9.08724 1.28971 7.9707 1.90039 6.93164C2.51107 5.89258 3.24023 4.94922 4.08789 4.10156C4.93555 3.25391 5.88346 2.52474 6.93164 1.91406C7.97982 1.30339 9.0918 0.833984 10.2676 0.505859C11.4434 0.177734 12.6875 0.00911458 14 0C15.2852 0 16.5202 0.164062 17.7051 0.492188C18.89 0.820312 20.0065 1.29427 21.0547 1.91406C22.1029 2.53385 23.0462 3.26302 23.8848 4.10156C24.7233 4.9401 25.457 5.88802 26.0859 6.94531C26.7148 8.0026 27.1842 9.11458 27.4941 10.2812C27.804 11.4479 27.9727 12.6875 28 14H27.0293C26.9017 13.7904 26.7695 13.5853 26.6328 13.3848C26.4961 13.1842 26.3366 12.9928 26.1543 12.8105C26.0996 12.0176 25.9583 11.2474 25.7305 10.5H8.98242C8.9095 11.0833 8.85482 11.6621 8.81836 12.2363C8.7819 12.8105 8.75911 13.3984 8.75 14C8.75 14.5924 8.76823 15.1758 8.80469 15.75C8.84115 16.3242 8.90039 16.9076 8.98242 17.5H14C14 17.7917 14.0228 18.0833 14.0684 18.375C14.1139 18.6667 14.1732 18.9583 14.2461 19.25H9.2832C9.39258 19.7695 9.53841 20.3392 9.7207 20.959C9.903 21.5788 10.1309 22.1849 10.4043 22.7773C10.6777 23.3698 10.9922 23.9258 11.3477 24.4453C11.7031 24.9648 12.1042 25.3887 12.5508 25.7168ZM25.0605 8.75C24.7051 8.01172 24.2858 7.31901 23.8027 6.67188C23.3197 6.02474 22.7728 5.43229 22.1621 4.89453C21.5514 4.35677 20.9043 3.87826 20.2207 3.45898C19.5371 3.03971 18.7988 2.69792 18.0059 2.43359C18.334 2.88932 18.6257 3.3724 18.8809 3.88281C19.1361 4.39323 19.3685 4.91732 19.5781 5.45508C19.7878 5.99284 19.9655 6.53971 20.1113 7.0957C20.2572 7.65169 20.3848 8.20312 20.4941 8.75H25.0605ZM14 1.75C13.5443 1.75 13.125 1.87305 12.7422 2.11914C12.3594 2.36523 12.0039 2.6888 11.6758 3.08984C11.3477 3.49089 11.056 3.94206 10.8008 4.44336C10.5456 4.94466 10.3132 5.45964 10.1035 5.98828C9.89388 6.51693 9.72526 7.01823 9.59766 7.49219C9.47005 7.96615 9.36523 8.38542 9.2832 8.75H18.7168C18.6439 8.39453 18.5391 7.97526 18.4023 7.49219C18.2656 7.00911 18.097 6.50781 17.8965 5.98828C17.696 5.46875 17.4681 4.95833 17.2129 4.45703C16.9577 3.95573 16.666 3.5 16.3379 3.08984C16.0098 2.67969 15.6497 2.35612 15.2578 2.11914C14.8659 1.88216 14.4466 1.75911 14 1.75ZM10.0078 2.41992C9.23307 2.68424 8.49479 3.02148 7.79297 3.43164C7.09115 3.8418 6.43945 4.32031 5.83789 4.86719C5.23633 5.41406 4.68945 6.01107 4.19727 6.6582C3.70508 7.30534 3.28581 8.0026 2.93945 8.75H7.50586C7.60612 8.2487 7.72917 7.71549 7.875 7.15039C8.02083 6.58529 8.20312 6.02018 8.42188 5.45508C8.64062 4.88997 8.8776 4.34766 9.13281 3.82812C9.38802 3.30859 9.67969 2.83919 10.0078 2.41992ZM1.75 14C1.75 15.2122 1.91862 16.3789 2.25586 17.5H7.21875C7.14583 16.9167 7.09115 16.3379 7.05469 15.7637C7.01823 15.1895 7 14.6016 7 14C7 13.4076 7.01823 12.8242 7.05469 12.25C7.09115 11.6758 7.14583 11.0924 7.21875 10.5H2.25586C1.91862 11.6211 1.75 12.7878 1.75 14ZM2.91211 19.25C3.26758 19.9883 3.68685 20.681 4.16992 21.3281C4.65299 21.9753 5.19987 22.5723 5.81055 23.1191C6.42122 23.666 7.07747 24.14 7.7793 24.541C8.48112 24.9421 9.2194 25.2839 9.99414 25.5664C9.66602 25.1107 9.37435 24.6276 9.11914 24.1172C8.86393 23.6068 8.63151 23.0827 8.42188 22.5449C8.21224 22.0072 8.0345 21.4603 7.88867 20.9043C7.74284 20.3483 7.61068 19.7969 7.49219 19.25H2.91211ZM24.0898 21.7246C24.6823 22.0254 25.2201 22.3945 25.7031 22.832C26.1862 23.2695 26.5964 23.7617 26.9336 24.3086C27.2708 24.8555 27.5352 25.4388 27.7266 26.0586C27.918 26.6784 28.0091 27.3255 28 28H26.25C26.25 27.2799 26.1133 26.6009 25.8398 25.9629C25.5664 25.3249 25.1927 24.7689 24.7188 24.2949C24.2448 23.821 23.6842 23.4427 23.0371 23.1602C22.39 22.8776 21.7109 22.7409 21 22.75C20.2708 22.75 19.5918 22.8867 18.9629 23.1602C18.334 23.4336 17.778 23.8073 17.2949 24.2812C16.8118 24.7552 16.4336 25.3158 16.1602 25.9629C15.8867 26.61 15.75 27.2891 15.75 28H14C14 27.3346 14.0911 26.6921 14.2734 26.0723C14.4557 25.4525 14.7155 24.8646 15.0527 24.3086C15.39 23.7526 15.8001 23.2604 16.2832 22.832C16.7663 22.4036 17.304 22.0345 17.8965 21.7246C17.2129 21.2324 16.6842 20.6172 16.3105 19.8789C15.9368 19.1406 15.75 18.3477 15.75 17.5C15.75 16.7799 15.8867 16.1009 16.1602 15.4629C16.4336 14.8249 16.8073 14.2689 17.2812 13.7949C17.7552 13.321 18.3112 12.9427 18.9492 12.6602C19.5872 12.3776 20.2708 12.2409 21 12.25C21.7201 12.25 22.3991 12.3867 23.0371 12.6602C23.6751 12.9336 24.2311 13.3073 24.7051 13.7812C25.179 14.2552 25.5573 14.8158 25.8398 15.4629C26.1224 16.11 26.2591 16.7891 26.25 17.5C26.25 18.3385 26.0632 19.127 25.6895 19.8652C25.3158 20.6035 24.7826 21.2233 24.0898 21.7246ZM21 21C21.4831 21 21.9342 20.9089 22.3535 20.7266C22.7728 20.5443 23.1465 20.2936 23.4746 19.9746C23.8027 19.6556 24.0534 19.2865 24.2266 18.8672C24.3997 18.4479 24.4909 17.9922 24.5 17.5C24.5 17.0169 24.4089 16.5658 24.2266 16.1465C24.0443 15.7272 23.7936 15.3535 23.4746 15.0254C23.1556 14.6973 22.7865 14.4466 22.3672 14.2734C21.9479 14.1003 21.4922 14.0091 21 14C20.5169 14 20.0658 14.0911 19.6465 14.2734C19.2272 14.4557 18.8535 14.7064 18.5254 15.0254C18.1973 15.3444 17.9466 15.7135 17.7734 16.1328C17.6003 16.5521 17.5091 17.0078 17.5 17.5C17.5 17.9831 17.5911 18.4342 17.7734 18.8535C17.9557 19.2728 18.2064 19.6465 18.5254 19.9746C18.8444 20.3027 19.2135 20.5534 19.6328 20.7266C20.0521 20.8997 20.5078 20.9909 21 21Z" fill="white"/>
</g>
<defs>
<clipPath id="clip0_320_7">
<rect width="28" height="28" fill="white"/>
</clipPath>
</defs>
</svg>
