<svg width="115" height="114" viewBox="0 0 115 114" fill="none" xmlns="http://www.w3.org/2000/svg">
<g filter="url(#filter0_f_17_2359)">
<path fill-rule="evenodd" clip-rule="evenodd" d="M56.438 4C29.7265 4 31.3945 15.776 31.3945 15.776L31.4243 27.9759L56.9145 27.9759L56.9145 31.6388L21.2997 31.6388C21.2997 31.6388 4.20703 29.6682 4.20703 57.0678C4.20703 84.4674 19.1259 83.4957 19.1259 83.4957L28.0296 83.4957L28.0296 70.7813C28.0296 70.7813 27.5497 55.6147 42.7103 55.6147L67.992 55.6147C67.992 55.6147 82.1962 55.8481 82.1962 41.6591L82.1962 18.1978C82.1962 18.1978 84.3528 4 56.438 4ZM42.3827 12.2039C44.9188 12.2039 46.9685 14.2877 46.9685 16.8658C46.9685 19.444 44.9188 21.5278 42.3827 21.5278C39.8466 21.5278 37.7969 19.444 37.7969 16.8658C37.7969 14.2877 39.8466 12.2039 42.3827 12.2039Z" fill="white"/>
<path fill-rule="evenodd" clip-rule="evenodd" d="M56.9905 110C84.2061 110 82.5065 98.4421 82.5065 98.4421L82.4762 86.4681L56.5051 86.4681L56.5051 82.873L92.7918 82.873C92.7918 82.873 110.207 84.8071 110.207 57.9149C110.207 31.0228 95.0067 31.9764 95.0067 31.9764L85.935 31.9764L85.935 44.4554C85.935 44.4554 86.424 59.3411 70.9773 59.3411L45.2186 59.3411C45.2186 59.3411 30.7464 59.112 30.7464 73.0383L30.7464 96.0651C30.7464 96.0651 28.5491 110 56.9905 110Z" fill="white"/>
</g>
<defs>
<filter id="filter0_f_17_2359" x="0.207031" y="0" width="114" height="114" filterUnits="userSpaceOnUse" color-interpolation-filters="sRGB">
<feFlood flood-opacity="0" result="BackgroundImageFix"/>
<feBlend mode="normal" in="SourceGraphic" in2="BackgroundImageFix" result="shape"/>
<feGaussianBlur stdDeviation="2" result="effect1_foregroundBlur_17_2359"/>
</filter>
</defs>
</svg>
