<svg width="212" height="212" viewBox="0 0 212 212" fill="none" xmlns="http://www.w3.org/2000/svg">
<path fill-rule="evenodd" clip-rule="evenodd" d="M104.767 0.629883C51.6283 0.629887 54.9466 24.0564 54.9466 24.0564L55.0058 48.3261H105.714V55.613H34.8645C34.8645 55.613 0.861328 51.6927 0.861328 106.2C0.861324 160.707 30.5401 158.774 30.5401 158.774H48.2526V133.481C48.2526 133.481 47.2978 103.309 77.4574 103.309H127.751C127.751 103.309 156.008 103.774 156.008 75.5466V28.8742C156.008 28.8742 160.299 0.629883 104.767 0.629883ZM76.8058 16.9502C81.8509 16.9502 85.9286 21.0955 85.9286 26.2244C85.9286 31.3533 81.8509 35.4987 76.8058 35.4987C71.7607 35.4987 67.683 31.3533 67.683 26.2244C67.683 21.0955 71.7607 16.9502 76.8058 16.9502Z" fill="white"/>
<path fill-rule="evenodd" clip-rule="evenodd" d="M105.866 211.5C160.007 211.5 156.626 188.507 156.626 188.507L156.565 164.687H104.9V157.535H177.087C177.087 157.535 211.732 161.383 211.732 107.885C211.732 54.3874 181.493 56.2845 181.493 56.2845H163.446V81.1096C163.446 81.1096 164.419 110.722 133.69 110.722H82.4474C82.4474 110.722 53.6572 110.267 53.6572 137.971V183.779C53.6572 183.779 49.286 211.5 105.866 211.5Z" fill="white"/>
</svg>
