<svg width="850" height="839" viewBox="0 0 850 839" fill="none" xmlns="http://www.w3.org/2000/svg">
<path d="M847.086 490.896C853.991 526.948 844.015 564.177 820.01 591.946L731.597 694.22L643.643 796.888C619.762 824.764 584.435 840.177 547.757 838.723L412.672 833.366L277.565 828.613C240.881 827.322 206.805 809.312 185.073 779.729L105.037 670.776L24.5154 562.181C2.65219 532.696 -4.51328 494.825 5.06633 459.39L40.3479 328.884L75.0462 198.222C84.4675 162.745 109.608 133.531 143.285 118.927L267.317 65.1419L391.107 10.8035C424.718 -3.95038 463.233 -2.50924 495.648 14.7152L615.031 78.1525L734.696 141.056C767.188 158.135 790.075 189.147 796.819 225.229L821.656 358.119L847.086 490.896Z" fill="#001F45"/>
</svg>
