<svg width="39" height="36" viewBox="0 0 39 36" fill="none" xmlns="http://www.w3.org/2000/svg">
<g id="twitter" clip-path="url(#clip0_14_80)">
<g id="Group">
<path id="Vector" d="M19.0645 35.9997C29.5828 35.9997 38.1095 27.9409 38.1095 17.9998C38.1095 8.0588 29.5828 0 19.0645 0C8.54626 0 0.0195312 8.0588 0.0195312 17.9998C0.0195312 27.9409 8.54626 35.9997 19.0645 35.9997Z" fill="#55ACEE"/>
<g id="Group_2">
<path id="Vector_2" d="M30.7297 12.9356C29.9136 13.2776 29.0357 13.5089 28.1149 13.6123C29.055 13.08 29.7764 12.2377 30.1169 11.2324C29.2373 11.7256 28.2626 12.0833 27.2261 12.2762C26.3957 11.4403 25.2126 10.918 23.9025 10.918C21.3889 10.918 19.3502 12.8448 19.3502 15.2204C19.3502 15.5577 19.3906 15.8859 19.4687 16.201C15.6853 16.0216 12.3308 14.3089 10.0854 11.705C9.6936 12.3404 9.46886 13.08 9.46886 13.8683C9.46886 15.3607 10.2731 16.6781 11.4939 17.4495C10.7481 17.4273 10.0457 17.2339 9.43219 16.9107C9.43185 16.929 9.43185 16.9473 9.43185 16.9653C9.43185 19.0499 11.0017 20.7887 13.0838 21.1837C12.7022 21.2825 12.2992 21.3348 11.8847 21.3348C11.5907 21.3348 11.3059 21.3082 11.0282 21.2581C11.6073 22.9671 13.2882 24.2111 15.2807 24.246C13.7224 25.4002 11.7598 26.0878 9.62638 26.0878C9.25973 26.0878 8.89647 26.0676 8.54102 26.0275C10.5546 27.2487 12.948 27.9607 15.5187 27.9607C23.892 27.9607 28.4711 21.4048 28.4711 15.7187C28.4711 15.5323 28.4667 15.3465 28.4578 15.1624C29.348 14.5559 30.1197 13.7984 30.7297 12.9356Z" fill="#F1F2F2"/>
</g>
</g>
</g>
<defs>
<clipPath id="clip0_14_80">
<rect width="38.0903" height="36" fill="white" transform="translate(0.0195312)"/>
</clipPath>
</defs>
</svg>
