<svg width="270" height="200" viewBox="0 0 270 200" fill="none" xmlns="http://www.w3.org/2000/svg">
<path d="M8.11426 1.70898L8.11426 0.208984L7.49294 0.208984L7.0536 0.648324L8.11426 1.70898ZM127.114 1.70898L128.175 0.648323L127.736 0.208983L127.114 0.208983L127.114 1.70898ZM169.614 44.209L168.554 45.2696L168.993 45.709L169.614 45.709L169.614 44.209ZM117.614 21.209L118.675 20.1483L118.236 19.709L117.614 19.709L117.614 21.209ZM160.114 63.709L159.054 64.7696L159.493 65.209L160.114 65.209L160.114 63.709ZM178.114 76.709L178.114 75.209L177.493 75.209L177.054 75.6483L178.114 76.709ZM166.614 88.209L166.614 89.709L167.236 89.709L167.675 89.2696L166.614 88.209ZM160.114 77.709L160.114 79.209L160.736 79.209L161.175 78.7696L160.114 77.709ZM169.614 100.209L170.675 99.1483L170.236 98.709L169.614 98.709L169.614 100.209ZM185.614 116.209L184.554 117.27L184.993 117.709L185.614 117.709L185.614 116.209ZM143.614 116.209L144.675 115.148L144.236 114.709L143.614 114.709L143.614 116.209ZM158.614 131.209L157.554 132.27L157.993 132.709L158.614 132.709L158.614 131.209ZM244.115 161.209L244.115 162.709L244.737 162.709L245.176 162.27L244.115 161.209ZM44.1143 161.209L45.1749 160.148L44.7356 159.709L44.1143 159.709L44.1143 161.209ZM61.6143 178.709L60.5536 179.77L60.9929 180.209L61.6143 180.209L61.6143 178.709ZM248.614 178.709L248.614 180.209L249.236 180.209L249.675 179.77L248.614 178.709ZM15.6143 191.709L14.5536 192.77L14.9929 193.209L15.6143 193.209L15.6143 191.709ZM93.6143 191.709L94.6749 190.648L94.2356 190.209L93.6143 190.209L93.6143 191.709ZM100.114 198.209L99.0536 199.27L99.493 199.709L100.114 199.709L100.114 198.209ZM32.6143 30.209L33.6749 29.1483L33.2356 28.709L32.6143 28.709L32.6143 30.209ZM49.1143 46.709L48.0536 47.7696L48.4929 48.209L49.1143 48.209L49.1143 46.709ZM232.114 8.20898L233.175 7.14832L232.736 6.70898L232.114 6.70898L232.114 8.20898ZM254.614 150.71L254.614 149.21L253.993 149.21L253.554 149.649L254.614 150.71ZM8.11426 3.20898L127.114 3.20898L127.114 0.208983L8.11426 0.208984L8.11426 3.20898ZM126.054 2.76964L168.554 45.2696L170.675 43.1483L128.175 0.648323L126.054 2.76964ZM169.614 45.709L269.614 45.709L269.614 42.709L169.614 42.709L169.614 45.709ZM1.61426 22.709L117.614 22.709L117.614 19.709L1.61426 19.709L1.61426 22.709ZM116.554 22.2696L159.054 64.7696L161.175 62.6483L118.675 20.1483L116.554 22.2696ZM227.114 75.209L178.114 75.209L178.114 78.209L227.114 78.209L227.114 75.209ZM177.054 75.6483L165.554 87.1483L167.675 89.2696L179.175 77.7696L177.054 75.6483ZM166.614 86.709L82.6143 86.709L82.6143 89.709L166.614 89.709L166.614 86.709ZM160.114 65.209L174.114 65.209L174.114 62.209L160.114 62.209L160.114 65.209ZM174.114 65.209L254.614 65.209L254.614 62.209L174.114 62.209L174.114 65.209ZM173.054 62.6483L159.054 76.6483L161.175 78.7696L175.175 64.7696L173.054 62.6483ZM160.114 76.209L65.6143 76.209L65.6143 79.209L160.114 79.209L160.114 76.209ZM57.1143 101.709L169.614 101.709L169.614 98.709L57.1143 98.709L57.1143 101.709ZM168.554 101.27L184.554 117.27L186.675 115.148L170.675 99.1483L168.554 101.27ZM185.614 117.709L269.614 117.709L269.614 114.709L185.614 114.709L185.614 117.709ZM217.614 96.209L269.614 96.209L269.614 93.209L217.614 93.209L217.614 96.209ZM65.6143 117.709L143.614 117.709L143.614 114.709L65.6143 114.709L65.6143 117.709ZM142.554 117.27L157.554 132.27L159.675 130.148L144.675 115.148L142.554 117.27ZM158.614 132.709L269.614 132.709L269.614 129.709L158.614 129.709L158.614 132.709ZM49.1143 140.209L269.614 140.209L269.614 137.209L49.1143 137.209L49.1143 140.209ZM111.614 162.709L244.115 162.709L244.115 159.709L111.614 159.709L111.614 162.709ZM1.61426 162.709L44.1143 162.709L44.1143 159.709L1.61426 159.709L1.61426 162.709ZM43.0536 162.27L60.5536 179.77L62.6749 177.648L45.1749 160.148L43.0536 162.27ZM61.6143 180.209L248.614 180.209L248.614 177.209L61.6143 177.209L61.6143 180.209ZM249.675 179.77L265.175 164.27L263.054 162.148L247.554 177.648L249.675 179.77ZM15.6143 193.209L93.6143 193.209L93.6143 190.209L15.6143 190.209L15.6143 193.209ZM92.5536 192.77L99.0536 199.27L101.175 197.148L94.6749 190.648L92.5536 192.77ZM100.114 199.709L193.614 199.709L193.614 196.709L100.114 196.709L100.114 199.709ZM8.11426 31.709L32.6143 31.709L32.6143 28.709L8.11426 28.709L8.11426 31.709ZM31.5536 31.2696L48.0536 47.7696L50.1749 45.6483L33.6749 29.1483L31.5536 31.2696ZM49.1143 48.209L120.114 48.209L120.114 45.209L49.1143 45.209L49.1143 48.209ZM55.6143 63.209L95.6143 63.209L95.6143 60.209L55.6143 60.209L55.6143 63.209ZM16.6749 190.648L8.1759 182.149L6.05458 184.271L14.5536 192.77L16.6749 190.648ZM7.0536 0.648324L0.553598 7.14832L2.67492 9.26964L9.17492 2.76964L7.0536 0.648324ZM174.614 9.70898L232.114 9.70898L232.114 6.70898L174.614 6.70898L174.614 9.70898ZM231.054 9.26964L256.055 34.2706L258.176 32.1493L233.175 7.14832L231.054 9.26964ZM245.176 162.27L255.675 151.771L253.554 149.649L243.055 160.148L245.176 162.27ZM254.614 152.21L269.614 152.21L269.614 149.21L254.614 149.21L254.614 152.21Z" fill="white"/>
</svg>
